<svg width="140" height="41" viewBox="0 0 140 41" fill="none" xmlns="http://www.w3.org/2000/svg">
<path d="M140 36.5572C140 37.0863 139.896 37.6101 139.693 38.0989C139.49 38.5877 139.193 39.0317 138.819 39.4056C138.445 39.7795 138 40.076 137.511 40.2781C137.022 40.4802 136.498 40.5839 135.969 40.5834H4.03674C2.96743 40.5845 1.94145 40.161 1.18445 39.4059C0.427442 38.6509 0.00139357 37.6262 0 36.5572V4.44944C0.00139293 3.37992 0.427273 2.35468 1.18413 1.59881C1.94098 0.842944 2.96695 0.418246 4.03674 0.417969H135.967C136.497 0.417969 137.021 0.522253 137.51 0.724867C138 0.92748 138.444 1.22445 138.819 1.59882C139.193 1.97319 139.49 2.41763 139.692 2.90674C139.895 3.39585 139.999 3.92007 139.999 4.44944L140 36.5572Z" fill="black"/>
<path d="M30.7447 20.2816C30.7142 16.8935 33.5196 15.2451 33.6479 15.1684C32.0591 12.8525 29.5964 12.5361 28.731 12.5109C26.6627 12.2933 24.6564 13.7482 23.6028 13.7482C22.5282 13.7482 20.9057 12.5319 19.1571 12.5676C16.9068 12.6023 14.8017 13.9048 13.6471 15.9274C11.2644 20.0514 13.0415 26.1117 15.3243 29.4452C16.4662 31.0788 17.8006 32.9005 19.5472 32.8364C21.2559 32.767 21.8941 31.7484 23.9561 31.7484C25.9992 31.7484 26.5986 32.8364 28.3798 32.7954C30.2137 32.767 31.3682 31.1555 32.4702 29.5082C33.7899 27.6381 34.3198 25.7942 34.3408 25.6996C34.2988 25.6849 30.7804 24.3414 30.7447 20.2816ZM27.3799 10.318C28.2989 9.16902 28.9277 7.60584 28.7531 6.01953C27.423 6.0784 25.7595 6.93936 24.8016 8.06312C23.954 9.05338 23.197 10.6765 23.3925 12.2029C24.8867 12.3143 26.4209 11.4491 27.3799 10.318Z" fill="white"/>
<path d="M55.4934 32.6031H53.1054L51.7973 28.4939H47.2506L46.0046 32.6031H43.6797L48.1854 18.6133H50.9677L55.4934 32.6031ZM51.403 26.7698L50.2201 23.1168C50.0949 22.7436 49.8594 21.8648 49.5145 20.4814H49.4724C49.3336 21.0764 49.1118 21.9552 48.8079 23.1168L47.6449 26.7698H51.403ZM67.0579 27.4353C67.0579 29.1509 66.5921 30.507 65.6594 31.5025C64.8245 32.3887 63.7866 32.8312 62.549 32.8312C61.2125 32.8312 60.2515 32.355 59.6679 31.4005V36.6935H57.4261V25.8311C57.4261 24.7536 57.3977 23.6487 57.343 22.5155H59.3146L59.4397 24.1144H59.4818C60.2294 22.9097 61.364 22.3074 62.8865 22.3074C64.0769 22.3074 65.0705 22.7773 65.8655 23.7181C66.6594 24.6611 67.0579 25.8994 67.0579 27.4353ZM64.774 27.5173C64.774 26.5354 64.5532 25.726 64.1095 25.0879C63.6247 24.4245 62.9738 24.0924 62.1579 24.0924C61.6048 24.0924 61.1021 24.2774 60.6531 24.6421C60.2031 25.0101 59.9087 25.4905 59.7709 26.0855C59.7094 26.308 59.6745 26.537 59.6668 26.7677V28.4508C59.6668 29.1835 59.8919 29.8026 60.3419 30.3093C60.7919 30.8139 61.3766 31.0673 62.0958 31.0673C62.9402 31.0673 63.5974 30.7403 64.0674 30.0917C64.5385 29.441 64.774 28.5832 64.774 27.5173ZM78.6634 27.4353C78.6634 29.1509 78.1976 30.507 77.2649 31.5025C76.4289 32.3887 75.3921 32.8312 74.1535 32.8312C72.817 32.8312 71.8559 32.355 71.2723 31.4005V36.6935H69.0305V25.8311C69.0305 24.7536 69.0021 23.6487 68.9474 22.5155H70.919L71.0442 24.1144H71.0862C71.8328 22.9097 72.9674 22.3074 74.491 22.3074C75.6803 22.3074 76.6739 22.7773 77.471 23.7181C78.2638 24.6611 78.6634 25.8994 78.6634 27.4353ZM76.3785 27.5173C76.3785 26.5354 76.1566 25.726 75.7129 25.0879C75.2281 24.4245 74.5793 24.0924 73.7634 24.0924C73.2103 24.0924 72.7076 24.2774 72.2565 24.6421C71.8065 25.0101 71.5131 25.4905 71.3754 26.0855C71.307 26.363 71.2702 26.589 71.2702 26.7677V28.4508C71.2702 29.1835 71.4963 29.8026 71.9442 30.3093C72.3943 30.8129 72.9789 31.0673 73.7003 31.0673C74.5457 31.0673 75.2029 30.7403 75.6718 30.0917C76.1429 29.441 76.3785 28.5832 76.3785 27.5173ZM91.639 28.6789C91.639 29.8699 91.2226 30.8381 90.3951 31.5855C89.4845 32.4013 88.2132 32.8102 86.5834 32.8102C85.0776 32.8102 83.8705 32.5201 82.9599 31.9387L83.4782 30.0707C84.4614 30.6531 85.5413 30.9432 86.7169 30.9432C87.5623 30.9432 88.2195 30.7519 88.6885 30.3724C89.1585 29.9919 89.3961 29.4831 89.3961 28.8481C89.3961 28.2794 89.1995 27.8032 88.8136 27.4153C88.4256 27.0284 87.7842 26.6679 86.883 26.3367C84.433 25.4232 83.207 24.0871 83.207 22.3294C83.207 21.1815 83.6402 20.2417 84.5045 19.5069C85.3689 18.7731 86.515 18.4062 87.9409 18.4062C89.2142 18.4062 90.2752 18.6281 91.1175 19.0706L90.5549 20.8977C89.7621 20.4688 88.8672 20.2543 87.8662 20.2543C87.0755 20.2543 86.4551 20.4488 86.0113 20.8356C85.6381 21.1815 85.4488 21.603 85.4488 22.1034C85.4488 22.6553 85.6643 23.1137 86.0933 23.4732C86.4656 23.8043 87.1449 24.1649 88.127 24.5517C89.332 25.0374 90.2174 25.603 90.7841 26.2526C91.3551 26.9023 91.639 27.7128 91.639 28.6789ZM99.07 24.1975H96.599V29.0952C96.599 30.3409 97.0343 30.9621 97.9071 30.9621C98.3077 30.9621 98.64 30.9285 98.9028 30.8581L98.9649 32.56C98.5232 32.7251 97.9418 32.8081 97.2215 32.8081C96.3361 32.8081 95.6442 32.5379 95.1447 31.9976C94.6474 31.4573 94.3971 30.5522 94.3971 29.2781V24.1933H92.925V22.5113H94.3971V20.6643L96.599 19.9999V22.5113H99.07V24.1975ZM110.197 27.4763C110.197 29.0268 109.753 30.2999 108.868 31.2954C107.942 32.3203 106.709 32.8312 105.173 32.8312C103.69 32.8312 102.512 32.3403 101.633 31.3595C100.753 30.3766 100.314 29.1383 100.314 27.6445C100.314 26.0813 100.768 24.8009 101.674 23.8054C102.581 22.8088 103.803 22.3105 105.339 22.3105C106.82 22.3105 108.009 22.8025 108.909 23.7843C109.769 24.7368 110.197 25.9667 110.197 27.4763ZM107.873 27.5278C107.873 26.6037 107.673 25.8111 107.273 25.1478C106.803 24.3468 106.13 23.9462 105.258 23.9462C104.36 23.9462 103.671 24.3468 103.202 25.1478C102.801 25.8111 102.601 26.6174 102.601 27.5698C102.601 28.4949 102.801 29.2896 103.202 29.9509C103.687 30.7519 104.363 31.1524 105.239 31.1524C106.096 31.1524 106.768 30.7435 107.254 29.9309C107.666 29.2518 107.873 28.4539 107.873 27.5278ZM117.487 24.4866C117.254 24.4445 117.018 24.4237 116.781 24.4245C115.992 24.4245 115.382 24.721 114.953 25.3181C114.581 25.8437 114.394 26.5081 114.394 27.3102V32.6031H112.152V25.6923C112.154 24.6334 112.132 23.5745 112.087 22.5166H114.039L114.121 24.4466H114.183C114.421 23.7833 114.793 23.2482 115.304 22.8477C115.772 22.4977 116.34 22.3082 116.925 22.3074C117.132 22.3074 117.319 22.3221 117.485 22.3484L117.487 24.4866ZM127.513 27.0821C127.519 27.4228 127.492 27.7632 127.431 28.0986H120.706C120.731 29.0952 121.057 29.8584 121.682 30.384C122.248 30.8528 122.981 31.0883 123.881 31.0883C124.877 31.0883 125.786 30.9306 126.603 30.6121L126.954 32.1669C125.999 32.5831 124.872 32.7902 123.571 32.7902C122.007 32.7902 120.778 32.3298 119.885 31.411C118.993 30.4912 118.546 29.2549 118.546 27.7065C118.546 26.1864 118.961 24.9197 119.793 23.9094C120.664 22.8309 121.84 22.2916 123.321 22.2916C124.775 22.2916 125.876 22.8309 126.624 23.9094C127.216 24.7641 127.513 25.8237 127.513 27.0821ZM125.376 26.5007C125.391 25.8353 125.244 25.2624 124.94 24.7778C124.552 24.1533 123.955 23.8422 123.155 23.8422C122.422 23.8422 121.825 24.146 121.37 24.7557C120.997 25.2403 120.775 25.8227 120.707 26.4986L125.376 26.5007Z" fill="white"/>
<path d="M46.6051 13.6645C45.9816 13.6645 45.4422 13.634 44.9932 13.5825V6.81892C45.6211 6.72194 46.2557 6.67414 46.8911 6.67595C49.4621 6.67595 50.6461 7.94058 50.6461 10.002C50.6461 12.3799 49.2476 13.6645 46.6051 13.6645ZM46.9816 7.54322C46.6346 7.54322 46.3391 7.56424 46.0941 7.6147V12.7563C46.2266 12.7773 46.481 12.7868 46.8386 12.7868C48.5231 12.7868 49.4821 11.828 49.4821 10.0325C49.4821 8.43151 48.6146 7.54322 46.9816 7.54322ZM54.3358 13.716C52.8868 13.716 51.9478 12.6343 51.9478 11.1658C51.9478 9.63517 52.9068 8.54399 54.4178 8.54399C55.8458 8.54399 56.8058 9.57419 56.8058 11.0848C56.8058 12.6343 55.8163 13.716 54.3358 13.716ZM54.3779 9.34923C53.5819 9.34923 53.0719 10.0935 53.0719 11.1342C53.0719 12.155 53.5924 12.8992 54.3674 12.8992C55.1423 12.8992 55.6628 12.1035 55.6628 11.1132C55.6628 10.104 55.1528 9.34923 54.3779 9.34923ZM65.0686 8.64596L63.5176 13.6036H62.5071L61.8646 11.4506C61.7049 10.924 61.5719 10.3897 61.4661 9.84962H61.4451C61.3641 10.3899 61.2106 10.9313 61.0476 11.4506L60.3641 13.6036H59.3431L57.8836 8.64596H59.0161L59.5776 11.0028C59.7101 11.5642 59.8215 12.094 59.9141 12.5944H59.9351C60.0161 12.177 60.1486 11.6556 60.3431 11.0133L61.0476 8.64701H61.9456L62.6196 10.9629C62.7826 11.5242 62.9151 12.0751 63.0181 12.5954H63.0476C63.1191 12.0856 63.2316 11.5442 63.3841 10.9629L63.9866 8.64701L65.0686 8.64596ZM70.7783 13.6036H69.6763V10.7568C69.6763 9.8801 69.3398 9.44069 68.6763 9.44069C68.0233 9.44069 67.5743 10.002 67.5743 10.6549V13.6036H66.4723V10.063C66.4723 9.62465 66.4618 9.15475 66.4313 8.64491H67.4008L67.4523 9.4102H67.4828C67.7794 8.88038 68.3808 8.54399 69.0548 8.54399C70.0958 8.54399 70.7793 9.33977 70.7793 10.6349L70.7783 13.6036ZM73.8171 13.6036H72.7141V6.37109H73.8171V13.6036ZM77.8349 13.716C76.387 13.716 75.447 12.6343 75.447 11.1658C75.447 9.63517 76.4059 8.54399 77.9159 8.54399C79.3449 8.54399 80.3039 9.57419 80.3039 11.0848C80.3049 12.6343 79.3144 13.716 77.8349 13.716ZM77.8759 9.34923C77.0799 9.34923 76.57 10.0935 76.57 11.1342C76.57 12.155 77.0915 12.8992 77.8644 12.8992C78.6404 12.8992 79.1598 12.1035 79.1598 11.1132C79.1609 10.104 78.652 9.34923 77.8759 9.34923ZM84.6487 13.6036L84.5688 13.0327H84.5394C84.2029 13.4921 83.7118 13.716 83.0893 13.716C82.2008 13.716 81.5699 13.0937 81.5699 12.2569C81.5699 11.0333 82.6309 10.4005 84.4679 10.4005V10.309C84.4679 9.65619 84.1219 9.32926 83.4384 9.32926C82.9495 9.32926 82.5205 9.45225 82.143 9.69719L81.919 8.97289C82.3775 8.68695 82.9495 8.54399 83.6214 8.54399C84.9169 8.54399 85.5709 9.22729 85.5709 10.5949V12.4209C85.5709 12.9213 85.593 13.3092 85.6424 13.6046L84.6487 13.6036ZM84.4973 11.1342C83.2733 11.1342 82.6593 11.4307 82.6593 12.1339C82.6593 12.6543 82.9758 12.9087 83.4153 12.9087C83.9757 12.9087 84.4973 12.4808 84.4973 11.8995V11.1342ZM90.922 13.6036L90.8705 12.8078H90.84C90.5235 13.4091 89.9914 13.716 89.248 13.716C88.0524 13.716 87.1671 12.6648 87.1671 11.1857C87.1671 9.63517 88.085 8.54294 89.3384 8.54294C90.0019 8.54294 90.472 8.76685 90.7369 9.21678H90.759V6.37109H91.8621V12.2674C91.8621 12.7468 91.8736 13.1957 91.9031 13.6036H90.922ZM90.759 10.6864C90.759 9.99258 90.2995 9.40074 89.5982 9.40074C88.7811 9.40074 88.2817 10.125 88.2817 11.1447C88.2817 12.1445 88.8001 12.8288 89.5761 12.8288C90.269 12.8288 90.759 12.2264 90.759 11.5127V10.6864ZM98.8556 13.716C97.4077 13.716 96.4687 12.6343 96.4687 11.1658C96.4687 9.63517 97.4277 8.54399 98.9377 8.54399C100.367 8.54399 101.326 9.57419 101.326 11.0848C101.327 12.6343 100.337 13.716 98.8556 13.716ZM98.8967 9.34923C98.1017 9.34923 97.5917 10.0935 97.5917 11.1342C97.5917 12.155 98.1122 12.8992 98.8861 12.8992C99.6622 12.8992 100.182 12.1035 100.182 11.1132C100.184 10.104 99.6737 9.34923 98.8967 9.34923ZM107.252 13.6036H106.149V10.7568C106.149 9.8801 105.812 9.44069 105.149 9.44069C104.496 9.44069 104.048 10.002 104.048 10.6549V13.6036H102.945V10.063C102.945 9.62465 102.934 9.15475 102.904 8.64491H103.873L103.925 9.4102H103.955C104.251 8.88038 104.853 8.54294 105.526 8.54294C106.567 8.54294 107.252 9.33872 107.252 10.6338V13.6036ZM114.666 9.47222H113.454V11.8795C113.454 12.4924 113.666 12.7983 114.095 12.7983C114.29 12.7983 114.453 12.7773 114.584 12.7468L114.615 13.5836C114.401 13.6656 114.115 13.7066 113.76 13.7066C112.891 13.7066 112.372 13.2272 112.372 11.9721V9.47222H111.648V8.64596H112.372V7.73769L113.454 7.41076V8.64491H114.666V9.47222ZM120.5 13.6036H119.399V10.7779C119.399 9.89061 119.064 9.44174 118.399 9.44174C117.828 9.44174 117.296 9.82964 117.296 10.6149V13.6036H116.195V6.37109H117.296V9.34923H117.318C117.665 8.8089 118.168 8.54294 118.809 8.54294C119.858 8.54294 120.5 9.35869 120.5 10.6549V13.6036ZM126.477 11.3897H123.17C123.191 12.3284 123.812 12.8582 124.732 12.8582C125.221 12.8582 125.671 12.7762 126.069 12.6238L126.24 13.3891C125.771 13.593 125.219 13.695 124.577 13.695C123.026 13.695 122.108 12.7153 122.108 11.1962C122.108 9.67616 123.048 8.53347 124.453 8.53347C125.72 8.53347 126.515 9.47222 126.515 10.8903C126.522 11.0577 126.509 11.2253 126.477 11.3897ZM125.466 10.6044C125.466 9.8391 125.08 9.29877 124.376 9.29877C123.743 9.29877 123.242 9.84962 123.171 10.6044H125.466Z" fill="white"/>
</svg>
