<svg width="140" height="43" viewBox="0 0 140 43" fill="none" xmlns="http://www.w3.org/2000/svg">
<path d="M134.815 42.2399H5.18526C2.33335 42.2399 0 39.9065 0 37.0546V5.94307C0 3.09116 2.33335 0.757812 5.18526 0.757812H134.815C137.667 0.757812 140 3.09116 140 5.94307V37.0546C140 39.9065 137.667 42.2399 134.815 42.2399Z" fill="black"/>
<path d="M110.897 31.8705H112.832V18.9052H110.897V31.8705ZM128.327 23.5759L126.109 29.1967H126.042L123.74 23.5759H121.656L125.109 31.4318L123.14 35.8019H125.158L130.479 23.5763L128.327 23.5759ZM117.352 30.3978C116.719 30.3978 115.835 30.0805 115.835 29.2967C115.835 28.2961 116.936 27.9124 117.886 27.9124C118.737 27.9124 119.138 28.0956 119.654 28.3459C119.504 29.547 118.47 30.3978 117.352 30.3978ZM117.586 23.2923C116.185 23.2923 114.735 23.9097 114.134 25.2774L115.851 25.9944C116.219 25.2774 116.902 25.0441 117.62 25.0441C118.62 25.0441 119.638 25.644 119.654 26.7119V26.8451C119.304 26.645 118.553 26.3448 117.636 26.3448C115.784 26.3448 113.9 27.362 113.9 29.2635C113.9 30.9982 115.418 32.1158 117.119 32.1158C118.419 32.1158 119.138 31.532 119.587 30.8479H119.654V31.8492H121.523V26.8783C121.523 24.5765 119.804 23.2923 117.586 23.2923ZM105.627 25.1542H102.875V20.7103H105.627C107.074 20.7103 107.895 21.9078 107.895 22.9322C107.895 23.9369 107.074 25.1542 105.627 25.1542ZM105.577 18.9055H100.94V31.8708H102.875V26.959H105.577C107.722 26.959 109.83 25.4067 109.83 22.9327C109.83 20.4592 107.722 18.9055 105.577 18.9055ZM80.2929 30.4C78.956 30.4 77.8371 29.2802 77.8371 27.7437C77.8371 26.1894 78.956 25.0538 80.2929 25.0538C81.6128 25.0538 82.6486 26.1894 82.6486 27.7437C82.6486 29.2802 81.6128 30.4 80.2929 30.4ZM82.5149 24.3017H82.448C82.0138 23.7839 81.178 23.3161 80.126 23.3161C77.9202 23.3161 75.8988 25.2544 75.8988 27.7437C75.8988 30.2161 77.9202 32.1374 80.126 32.1374C81.178 32.1374 82.0137 31.6695 82.448 31.1352H82.5149V31.7696C82.5149 33.4577 81.6128 34.3594 80.1592 34.3594C78.9734 34.3594 78.2383 33.5074 77.9372 32.7891L76.2501 33.4908C76.7342 34.6598 78.0203 36.0972 80.1593 36.0972C82.4319 36.0972 84.3532 34.7603 84.3532 31.5021V23.5833H82.515L82.5149 24.3017ZM85.69 31.8701H87.6272V18.9048H85.69V31.8701ZM90.4844 27.5931C90.4346 25.8888 91.805 25.0202 92.7903 25.0202C93.5591 25.0202 94.2101 25.4047 94.4281 25.9556L90.4844 27.5931ZM96.4989 26.1226C96.1315 25.1374 95.0122 23.3161 92.7234 23.3161C90.4508 23.3161 88.563 25.1037 88.563 27.7268C88.563 30.1995 90.4346 32.1375 92.9401 32.1375C94.9616 32.1375 96.1316 30.9016 96.6164 30.1829L95.1126 29.1803C94.6112 29.9155 93.9266 30.4 92.9401 30.4C91.955 30.4 91.2529 29.9488 90.8025 29.0633L96.6994 26.6242L96.4989 26.1226ZM49.5123 24.6695V26.5406H53.9898C53.8561 27.5932 53.5053 28.3616 52.9705 28.8963C52.3187 29.5477 51.2996 30.2663 49.5122 30.2663C46.7555 30.2663 44.6004 28.0444 44.6004 25.2877C44.6004 22.5309 46.7555 20.3087 49.5122 20.3087C50.9993 20.3087 52.085 20.8936 52.887 21.6454L54.2073 20.3252C53.0875 19.2561 51.6008 18.4375 49.5122 18.4375C45.7358 18.4375 42.5615 21.5117 42.5615 25.2877C42.5615 29.0632 45.7358 32.1375 49.5122 32.1375C51.5503 32.1375 53.0876 31.4691 54.2903 30.2162C55.5267 28.9798 55.9111 27.2423 55.9111 25.8387C55.9111 25.4048 55.8774 25.0038 55.8106 24.6695H49.5123ZM61.0021 30.4C59.6652 30.4 58.5123 29.2973 58.5123 27.7268C58.5123 26.1396 59.6652 25.0539 61.0021 25.0539C62.3385 25.0539 63.4913 26.1396 63.4913 27.7268C63.4913 29.2973 62.3385 30.4 61.0021 30.4ZM61.0021 23.3161C58.5621 23.3161 56.5743 25.1705 56.5743 27.7268C56.5743 30.2663 58.5621 32.1375 61.0021 32.1375C63.4412 32.1375 65.4294 30.2663 65.4294 27.7268C65.4294 25.1705 63.4412 23.3161 61.0021 23.3161ZM70.6601 30.4C69.3242 30.4 68.1709 29.2973 68.1709 27.7268C68.1709 26.1396 69.3243 25.0539 70.6601 25.0539C71.997 25.0539 73.1495 26.1396 73.1495 27.7268C73.1495 29.2973 71.997 30.4 70.6601 30.4ZM70.6601 23.3161C68.2211 23.3161 66.2333 25.1705 66.2333 27.7268C66.2333 30.2663 68.2211 32.1375 70.6601 32.1375C73.1001 32.1375 75.088 30.2663 75.088 27.7268C75.088 25.1705 73.1001 23.3161 70.6601 23.3161Z" fill="white"/>
<path d="M21.4812 20.9025L10.4414 32.6205C10.4418 32.6229 10.4427 32.6249 10.443 32.6274C10.7816 33.8998 11.9438 34.8368 13.3232 34.8368C13.8745 34.8368 14.3922 34.6877 14.8362 34.426L14.8714 34.4053L27.2988 27.2342L21.4812 20.9025Z" fill="#EB3131"/>
<path d="M32.651 18.9066L32.6404 18.8994L27.2751 15.7891L21.2305 21.1679L27.2961 27.2327L32.6331 24.1534C33.5687 23.6482 34.204 22.6618 34.204 21.5243C34.204 20.395 33.5774 19.4134 32.651 18.9066Z" fill="#F6B60B"/>
<path d="M10.4401 10.3789C10.3738 10.6237 10.3389 10.88 10.3389 11.1462V31.8538C10.3389 32.1195 10.3733 32.3767 10.4405 32.6206L21.8619 21.2016L10.4401 10.3789Z" fill="#5778C5"/>
<path d="M21.5627 21.5002L27.2772 15.7874L14.8639 8.59028C14.4127 8.32003 13.8861 8.16406 13.3226 8.16406C11.9433 8.16406 10.7795 9.10268 10.4408 10.3766C10.4404 10.3779 10.4404 10.3787 10.4404 10.3798L21.5627 21.5002Z" fill="#3BAD49"/>
<path d="M49.1486 10.9024H46.1233V11.651H48.3903C48.3287 12.2619 48.0856 12.7416 47.6757 13.09C47.2657 13.4384 46.7423 13.6134 46.1233 13.6134C45.4444 13.6134 44.8691 13.3768 44.3977 12.9069C43.9358 12.4273 43.7009 11.8342 43.7009 11.1196C43.7009 10.4051 43.9358 9.81195 44.3977 9.33235C44.8691 8.86246 45.4444 8.62747 46.1233 8.62747C46.4718 8.62747 46.8039 8.68741 47.1085 8.8187C47.4132 8.94988 47.6578 9.13303 47.849 9.36803L48.4243 8.79278C48.1634 8.49618 47.8329 8.26937 47.4228 8.10407C47.0128 7.93877 46.5851 7.85943 46.1232 7.85943C45.2175 7.85943 44.4495 8.17376 43.8223 8.80089C43.1952 9.42955 42.8809 10.2041 42.8809 11.1196C42.8809 12.0351 43.1952 12.8113 43.8223 13.4385C44.4494 14.0655 45.2175 14.3799 46.1232 14.3799C47.0744 14.3799 47.8328 14.0753 48.4161 13.4562C48.9298 12.941 49.1923 12.2442 49.1923 11.3725C49.1923 11.225 49.1745 11.0677 49.1486 10.9024ZM50.3206 7.99865V14.2405H53.9648V13.474H51.1227V11.4939H53.6862V10.7453H51.1227V8.76677H53.9648V7.99863L50.3206 7.99865ZM59.0748 8.7668V7.99865H54.7856V8.7668H56.5292V14.2405H57.3313V8.7668H59.0748ZM62.958 7.99865H62.1559V14.2405H62.958V7.99865ZM68.2522 8.7668V7.99865H63.9631V8.7668H65.7066V14.2405H66.5086V8.7668H68.2522ZM76.3461 8.81056C75.7271 8.17371 74.9688 7.85938 74.0629 7.85938C73.1556 7.85938 72.3973 8.1737 71.7782 8.80083C71.1592 9.41985 70.8546 10.196 70.8546 11.1196C70.8546 12.0431 71.1592 12.8194 71.7782 13.4384C72.3972 14.0654 73.1556 14.3799 74.0629 14.3799C74.9606 14.3799 75.7271 14.0655 76.3461 13.4384C76.9651 12.8194 77.2697 12.0432 77.2697 11.1196C77.2697 10.2041 76.9651 9.42946 76.3461 8.81056ZM72.3535 9.33229C72.8153 8.86241 73.3824 8.62741 74.0629 8.62741C74.7419 8.62741 75.3091 8.86241 75.7628 9.33229C76.2246 9.79409 76.4514 10.3968 76.4514 11.1195C76.4514 11.8439 76.2246 12.445 75.7628 12.9069C75.309 13.3768 74.7419 13.6133 74.0629 13.6133C73.3824 13.6133 72.8153 13.3767 72.3535 12.9069C71.9013 12.4353 71.6745 11.8439 71.6745 11.1195C71.6745 10.3968 71.9013 9.8038 72.3535 9.33229ZM79.1753 10.3532L79.1413 9.14912H79.1753L82.3481 14.2404H83.1858V7.99859H82.3837V11.6509L82.4177 12.855H82.3837L79.3503 7.99859H78.3732V14.2404H79.1753V10.3532Z" fill="white" stroke="white" stroke-width="0.26666" stroke-miterlimit="10"/>
</svg>
