<svg width="60" height="60" viewBox="0 0 60 60" fill="none" xmlns="http://www.w3.org/2000/svg">
<path d="M16.3128 42.2423C8.34011 40.5793 6.30078 35.8139 6.30078 32.7193C6.30078 29.8076 8.0527 28.6094 9.65696 28.6094C11.37 28.6094 12.8908 30.2157 13.3977 32.4472L16.3128 42.2423Z" fill="#79B7C6"/>
<path d="M45.4472 47.8639C46.1769 47.2342 46.1561 46.9972 45.3276 46.5047C44.3126 45.9014 42.9206 44.6441 42.9206 42.2865C42.9206 37.8796 46.675 35.9148 46.675 27.6479C46.675 17.1696 38.5969 12.0312 30.4234 12.0312C21.691 12.0312 12.8262 17.972 12.8262 31.9785C12.8262 45.1952 23.8864 52.1092 33.7616 52.1092C38.0388 52.1347 42.1838 50.6288 45.4472 47.8639Z" fill="url(#paint0_radial_5782_4356)"/>
<mask id="mask0_5782_4356" style="mask-type:luminance" maskUnits="userSpaceOnUse" x="12" y="12" width="35" height="41">
<path d="M45.4472 47.8639C46.1769 47.2342 46.1561 46.9972 45.3276 46.5047C44.3126 45.9014 42.9206 44.6441 42.9206 42.2865C42.9206 37.8796 46.675 35.9148 46.675 27.6479C46.675 17.1696 38.5969 12.0312 30.4234 12.0312C21.691 12.0312 12.8262 17.972 12.8262 31.9785C12.8262 45.1952 23.8864 52.1092 33.7616 52.1092C38.0388 52.1347 42.1838 50.6288 45.4472 47.8639Z" fill="white"/>
</mask>
<g mask="url(#mask0_5782_4356)">
<path d="M25.1695 50.3803C17.3987 46.6365 13.8013 39.0813 13.8013 31.7403C13.8013 22.1335 19.962 12.8937 30.9926 13.0432C35.0264 13.0979 40.4856 14.6556 45.3901 17.8499L36.1793 8.705L-6.25586 7.65234L3.74437 46.8638L25.1695 50.3803Z" fill="url(#paint1_linear_5782_4356)"/>
</g>
<path d="M20.468 26.9068C20.3112 27.6317 19.965 28.302 19.4647 28.8495C19.0073 29.3266 18.4613 29.6094 17.9154 29.6094C17.7988 29.6084 17.6826 29.5952 17.5687 29.57C16.9686 29.4298 16.494 28.9602 16.226 28.2421C15.97 27.487 15.9375 26.6741 16.1325 25.901C16.5358 24.1599 17.8367 22.9672 19.0294 23.2427C19.2605 23.3006 19.4776 23.4045 19.6677 23.5482C19.8579 23.6918 20.0171 23.8723 20.136 24.0788C20.5861 24.8017 20.7115 25.8592 20.468 26.9068Z" fill="url(#paint2_radial_5782_4356)"/>
<path d="M32.5597 25.8818C32.1785 27.5294 30.8088 28.6655 29.3407 28.6655C29.1246 28.6651 28.9093 28.6404 28.6989 28.5918C27.0069 28.2007 25.9864 26.3465 26.4217 24.4629C26.857 22.5767 28.5882 21.3619 30.2801 21.7529C31.9719 22.1439 32.995 23.9956 32.5597 25.8818Z" fill="url(#paint3_radial_5782_4356)"/>
<path d="M28.4624 30.8894C28.4624 30.8894 28.4526 33.415 27.164 35.3134C26.3869 36.4569 25.1426 37.3742 23.1605 37.3742C22.2831 37.3972 21.423 37.1273 20.7161 36.6069C18.9308 35.2642 18.6455 32.5764 18.6455 31.9739C20.7432 31.0862 25.2729 30.7271 28.4624 30.8894Z" fill="black"/>
<path fill-rule="evenodd" clip-rule="evenodd" d="M19.1558 32.3029C19.1904 32.6702 19.2798 33.2423 19.4791 33.8618C19.7576 34.727 20.2315 35.626 21.0094 36.212C21.6278 36.6665 22.38 36.9023 23.1472 36.8822C23.1515 36.8821 23.1558 36.882 23.1602 36.882C24.9581 36.882 26.0586 36.064 26.7567 35.0368C27.3482 34.1654 27.6556 33.1327 27.8127 32.2982C27.8822 31.9288 27.9212 31.6046 27.9429 31.3597C26.4782 31.3118 24.7817 31.3671 23.1934 31.5269C21.5927 31.688 20.143 31.9513 19.1558 32.3029ZM28.462 30.8891L28.9539 30.891C28.9549 30.6283 28.7493 30.4112 28.487 30.3979C26.8659 30.3154 24.9112 30.3654 23.0949 30.5482C21.2913 30.7297 19.5733 31.0467 18.4535 31.5206C18.2715 31.5976 18.1533 31.776 18.1533 31.9736C18.1533 32.3232 18.2318 33.1968 18.5428 34.1631C18.8531 35.1274 19.4139 36.2429 20.4201 36.9996L20.4242 37.0026C21.2174 37.5865 22.1821 37.8901 23.1665 37.8657C25.3289 37.8637 26.7151 36.8481 27.5704 35.5895L27.5706 35.5893C28.2676 34.5623 28.6094 33.3829 28.7794 32.4801C28.865 32.0254 28.9085 31.6326 28.9307 31.3521C28.9418 31.2117 28.9475 31.0989 28.9506 31.0201C28.9521 30.9807 28.9529 30.9497 28.9533 30.9279C28.9536 30.917 28.9537 30.9084 28.9538 30.9023L28.9538 30.8948L28.9539 30.8924L28.9539 30.8916L28.9539 30.8912C28.9539 30.8911 28.9539 30.891 28.462 30.8891Z" fill="black"/>
<path d="M26.948 35.0825C27.0118 35.1462 27.0501 35.231 27.0558 35.3209C27.0616 35.4109 27.0343 35.4998 26.9792 35.5711C26.194 36.5927 24.9923 37.3762 23.1604 37.3762C22.396 37.3928 21.6426 37.1914 20.9884 36.7957C20.9098 36.7459 20.8529 36.6684 20.8289 36.5785C20.8049 36.4887 20.8157 36.3931 20.859 36.3108C22.3301 33.4466 25.2924 33.4356 26.948 35.0825Z" fill="#F05F5E"/>
<path d="M40.931 41.3659C40.931 36.7506 48.725 33.21 48.725 29.3173C48.725 26.7234 47.0053 25.4531 44.9656 25.4531C39.6795 25.4531 35.2544 33.0604 40.931 41.3659Z" fill="url(#paint4_radial_5782_4356)"/>
<path d="M52.8297 13.2071C53.9158 13.2071 54.0008 13.2921 54.0008 14.3783V16.792C54.0008 17.8781 53.9158 17.9631 52.8297 17.9631H48.953C48.5988 17.9631 48.571 17.9908 48.571 18.345V22.2217C48.571 23.3079 48.486 23.3929 47.3999 23.3929H44.9837C43.8976 23.3929 43.8126 23.3079 43.8126 22.2217V18.345C43.8126 17.9908 43.7849 17.9631 43.4307 17.9631H39.5539C38.4678 17.9631 38.3828 17.8781 38.3828 16.792V14.3783C38.3828 13.2921 38.4678 13.2071 39.5539 13.2071H43.4307C43.7849 13.2071 43.8126 13.1794 43.8126 12.8252V8.94846C43.8126 7.86234 43.8976 7.77734 44.9837 7.77734H47.3999C48.486 7.77734 48.571 7.86234 48.571 8.94846V12.8252C48.571 13.1794 48.5988 13.2071 48.953 13.2071H52.8297Z" fill="url(#paint5_linear_5782_4356)"/>
<path d="M18.803 24.9039L18.9173 24.7558C19.0018 24.6464 19.1263 24.5751 19.2634 24.5575C19.4006 24.5398 19.539 24.5774 19.6484 24.6619C19.7579 24.7464 19.8292 24.8709 19.8468 25.008C19.8644 25.1451 19.8269 25.2836 19.7424 25.393L19.628 25.5411C19.5435 25.6505 19.419 25.7219 19.2819 25.7395C19.1448 25.7571 19.0063 25.7195 18.8969 25.635C18.7875 25.5505 18.7161 25.426 18.6985 25.2889C18.6809 25.1518 18.7185 25.0133 18.803 24.9039Z" fill="url(#paint6_linear_5782_4356)"/>
<path d="M30.165 23.28L30.2986 23.1071C30.3973 22.9793 30.5427 22.896 30.7028 22.8754C30.8629 22.8549 31.0246 22.8987 31.1524 22.9974C31.2801 23.0961 31.3635 23.2415 31.384 23.4016C31.4046 23.5617 31.3607 23.7234 31.262 23.8512L31.1285 24.0241C31.0298 24.1519 30.8844 24.2352 30.7243 24.2558C30.5642 24.2763 30.4025 24.2325 30.2747 24.1338C30.1469 24.0351 30.0636 23.8897 30.043 23.7296C30.0225 23.5695 30.0664 23.4078 30.165 23.28Z" fill="url(#paint7_linear_5782_4356)"/>
<path fill-rule="evenodd" clip-rule="evenodd" d="M12.826 31.7344C12.9618 31.7344 13.0719 31.8445 13.0719 31.9803C13.0719 35.3287 13.7892 38.2628 15.0171 40.7756C15.0767 40.8976 15.0261 41.0448 14.9041 41.1045C14.7821 41.1641 14.6348 41.1135 14.5752 40.9915C13.3133 38.4091 12.5801 35.4008 12.5801 31.9803C12.5801 31.8445 12.6902 31.7344 12.826 31.7344Z" fill="#8888AC"/>
<path d="M37.9814 17.1927C37.9814 18.2788 38.0664 18.3638 39.1526 18.3638H43.0293C43.3835 18.3638 43.4113 18.3915 43.4113 18.7458V22.6225C43.4113 23.7086 43.4963 23.7936 44.5824 23.7936H46.9986C47.5416 23.7936 47.8344 23.7724 47.9914 23.6154L48.3922 23.2146C48.5492 23.0576 48.5704 22.7648 48.5704 22.2218V18.3638H52.4283C52.9714 18.3638 53.2642 18.3426 53.4212 18.1856L53.8219 17.7848C53.9789 17.6278 54.0002 17.335 54.0002 16.792V14.3783C54.0002 13.8668 53.9813 13.5773 53.848 13.4142C53.6981 13.2309 53.4037 13.2071 52.8291 13.2071H48.9524C48.765 13.2071 48.669 13.1994 48.6201 13.1396C48.5766 13.0864 48.5704 12.992 48.5704 12.8252V8.94846C48.5704 8.43699 48.5516 8.14753 48.4182 7.9844C48.2684 7.80114 47.974 7.77734 47.3993 7.77734H44.9831C44.4402 7.77734 44.1474 7.79858 43.9902 7.95572L43.5895 8.35634C43.4325 8.51335 43.4113 8.80613 43.4113 9.34919V13.2071H39.5533C39.0103 13.2071 38.7175 13.2284 38.5605 13.3854L38.1597 13.7861C38.0027 13.9432 37.9814 14.2359 37.9814 14.779L37.9814 17.1927Z" fill="#700000"/>
<path d="M52.8297 13.2071C53.9158 13.2071 54.0008 13.2921 54.0008 14.3783V16.792C54.0008 17.8781 53.9158 17.9631 52.8297 17.9631H48.953C48.5988 17.9631 48.571 17.9908 48.571 18.345V22.2217C48.571 23.3079 48.486 23.3929 47.3999 23.3929H44.9837C43.8976 23.3929 43.8126 23.3079 43.8126 22.2217V18.345C43.8126 17.9908 43.7849 17.9631 43.4307 17.9631H39.5539C38.4678 17.9631 38.3828 17.8781 38.3828 16.792V14.3783C38.3828 13.2921 38.4678 13.2071 39.5539 13.2071H43.4307C43.7849 13.2071 43.8126 13.1794 43.8126 12.8252V8.94846C43.8126 7.86234 43.8976 7.77734 44.9837 7.77734H47.3999C48.486 7.77734 48.571 7.86234 48.571 8.94846V12.8252C48.571 13.1794 48.5988 13.2071 48.953 13.2071H52.8297Z" fill="url(#paint8_linear_5782_4356)"/>
<path fill-rule="evenodd" clip-rule="evenodd" d="M38.0938 32.9605C38.0938 27.6014 41.8492 24.7852 44.9656 24.7852C46.0354 24.7852 47.0395 25.1186 47.7784 25.811C48.5202 26.5062 48.9709 27.5411 48.9709 28.8953C48.9709 29.95 48.444 30.955 47.7022 31.9208C47.0233 32.8049 46.1392 33.6872 45.2523 34.5724C45.1688 34.6557 45.0853 34.7391 45.0019 34.8224C44.0261 35.7983 43.0668 36.781 42.3502 37.8028C41.634 38.8238 41.1769 39.8609 41.1769 40.9439C41.1769 41.0797 41.0668 41.1898 40.931 41.1898C40.7952 41.1898 40.6851 41.0797 40.6851 40.9439C40.6851 39.7191 41.2022 38.5829 41.9475 37.5204C42.6922 36.4586 43.6814 35.4475 44.6541 34.4747C44.7365 34.3923 44.8187 34.3102 44.9007 34.2284C45.7934 33.3373 46.6541 32.4782 47.3122 31.6213C48.0318 30.6843 48.4791 29.7869 48.4791 28.8953C48.4791 27.6555 48.07 26.7583 47.4421 26.1699C46.8112 25.5787 45.9357 25.277 44.9656 25.277C42.1362 25.277 38.5856 27.8575 38.5856 32.9605C38.5856 33.0963 38.4755 33.2064 38.3397 33.2064C38.2038 33.2064 38.0938 33.0963 38.0938 32.9605Z" fill="#8888AC"/>
<defs>
<radialGradient id="paint0_radial_5782_4356" cx="0" cy="0" r="1" gradientUnits="userSpaceOnUse" gradientTransform="translate(27.8775 30.3654) rotate(13.1158) scale(24.991 29.1797)">
<stop stop-color="white"/>
<stop offset="0.1818" stop-color="#FCFEFE"/>
<stop offset="0.31954" stop-color="#F2FAFB"/>
<stop offset="0.44277" stop-color="#E2F2F7"/>
<stop offset="0.5571" stop-color="#CBE9F0"/>
<stop offset="0.66507" stop-color="#AEDCE8"/>
<stop offset="0.67142" stop-color="#ACDBE7"/>
<stop offset="1" stop-color="#6DA0BF"/>
</radialGradient>
<linearGradient id="paint1_linear_5782_4356" x1="7.15887" y1="15.7393" x2="17.6814" y2="25.639" gradientUnits="userSpaceOnUse">
<stop stop-color="white"/>
<stop offset="0.17389" stop-color="white" stop-opacity="0.98812"/>
<stop offset="0.30568" stop-color="white" stop-opacity="0.95038"/>
<stop offset="0.42365" stop-color="white" stop-opacity="0.88653"/>
<stop offset="0.53355" stop-color="white" stop-opacity="0.79645"/>
<stop offset="0.63791" stop-color="white" stop-opacity="0.67991"/>
<stop offset="0.73803" stop-color="white" stop-opacity="0.53687"/>
<stop offset="0.83485" stop-color="white" stop-opacity="0.36707"/>
<stop offset="0.92657" stop-color="white" stop-opacity="0.17572"/>
<stop offset="1" stop-color="white" stop-opacity="0"/>
</linearGradient>
<radialGradient id="paint2_radial_5782_4356" cx="0" cy="0" r="1" gradientUnits="userSpaceOnUse" gradientTransform="translate(19.0492 25.6565) rotate(11.9806) scale(2.04258 3.2852)">
<stop stop-color="#545468"/>
<stop offset="0.17025" stop-color="#505063"/>
<stop offset="0.3809" stop-color="#434354"/>
<stop offset="0.61286" stop-color="#2F2F3A"/>
<stop offset="0.85837" stop-color="#131318"/>
<stop offset="1"/>
</radialGradient>
<radialGradient id="paint3_radial_5782_4356" cx="0" cy="0" r="1" gradientUnits="userSpaceOnUse" gradientTransform="translate(30.0824 24.4821) rotate(10.1497) scale(2.71803 3.47844)">
<stop stop-color="#5B5B82"/>
<stop offset="0.14913" stop-color="#57577D"/>
<stop offset="0.33364" stop-color="#4D4D6D"/>
<stop offset="0.53688" stop-color="#3B3B54"/>
<stop offset="0.75355" stop-color="#222231"/>
<stop offset="0.97867" stop-color="#030305"/>
<stop offset="1"/>
</radialGradient>
<radialGradient id="paint4_radial_5782_4356" cx="0" cy="0" r="1" gradientUnits="userSpaceOnUse" gradientTransform="translate(39.7907 31.8243) rotate(-46.4143) scale(8.02658 5.45703)">
<stop stop-color="#E8F6FF"/>
<stop offset="0.27291" stop-color="#E5F5FE"/>
<stop offset="0.47642" stop-color="#DBF0FA"/>
<stop offset="0.65744" stop-color="#CBE9F4"/>
<stop offset="0.82539" stop-color="#B5DFEC"/>
<stop offset="0.98292" stop-color="#98D3E1"/>
<stop offset="1" stop-color="#94D1E0"/>
</radialGradient>
<linearGradient id="paint5_linear_5782_4356" x1="50.6326" y1="8.0907" x2="40.8856" y2="24.5399" gradientUnits="userSpaceOnUse">
<stop stop-color="#F05F5E"/>
<stop offset="0.26173" stop-color="#EC4E4D"/>
<stop offset="0.77612" stop-color="#E02323"/>
<stop offset="1" stop-color="#DB0E0E"/>
</linearGradient>
<linearGradient id="paint6_linear_5782_4356" x1="18.8879" y1="25.7135" x2="19.5693" y2="24.7128" gradientUnits="userSpaceOnUse">
<stop stop-color="white" stop-opacity="0"/>
<stop offset="0.09995" stop-color="white" stop-opacity="0.02075"/>
<stop offset="0.22369" stop-color="white" stop-opacity="0.08049"/>
<stop offset="0.36003" stop-color="white" stop-opacity="0.17928"/>
<stop offset="0.50552" stop-color="white" stop-opacity="0.31734"/>
<stop offset="0.6582" stop-color="white" stop-opacity="0.49474"/>
<stop offset="0.81694" stop-color="white" stop-opacity="0.71164"/>
<stop offset="0.9778" stop-color="white" stop-opacity="0.96294"/>
<stop offset="1" stop-color="white"/>
</linearGradient>
<linearGradient id="paint7_linear_5782_4356" x1="30.2642" y1="24.2254" x2="31.06" y2="23.0569" gradientUnits="userSpaceOnUse">
<stop stop-color="white" stop-opacity="0"/>
<stop offset="0.08639" stop-color="white" stop-opacity="0.04365"/>
<stop offset="0.23905" stop-color="white" stop-opacity="0.1604"/>
<stop offset="0.44002" stop-color="white" stop-opacity="0.35001"/>
<stop offset="0.68172" stop-color="white" stop-opacity="0.61266"/>
<stop offset="0.95521" stop-color="white" stop-opacity="0.94308"/>
<stop offset="1" stop-color="white"/>
</linearGradient>
<linearGradient id="paint8_linear_5782_4356" x1="50.6326" y1="8.0907" x2="40.8856" y2="24.5399" gradientUnits="userSpaceOnUse">
<stop stop-color="#F05F5E"/>
<stop offset="0.26173" stop-color="#EC4E4D"/>
<stop offset="0.77612" stop-color="#E02323"/>
<stop offset="1" stop-color="#DB0E0E"/>
</linearGradient>
</defs>
</svg>
