<svg width="200" height="40" viewBox="0 0 200 40" fill="none" xmlns="http://www.w3.org/2000/svg">
<path d="M18.073 6.93358C18.6157 4.98096 21.3843 4.98096 21.927 6.93358L23.5949 12.9353C23.8441 13.8317 24.6785 14.438 25.608 14.3979L31.8314 14.1296C33.8562 14.0423 34.7117 16.6754 33.0224 17.7949L27.8298 21.2359C27.0543 21.7498 26.7356 22.7307 27.0609 23.6024L29.2392 29.4383C29.9479 31.337 27.708 32.9643 26.1213 31.7036L21.2442 27.8285C20.5157 27.2497 19.4843 27.2497 18.7558 27.8285L13.8787 31.7036C12.292 32.9643 10.0521 31.337 10.7608 29.4383L12.9391 23.6024C13.2644 22.7307 12.9457 21.7498 12.1702 21.2359L6.97763 17.7949C5.28827 16.6754 6.14382 14.0423 8.16856 14.1296L14.392 14.3979C15.3215 14.438 16.1559 13.8317 16.4051 12.9353L18.073 6.93358Z" fill="#D6694C"/>
<path d="M58.073 6.93358C58.6157 4.98096 61.3843 4.98096 61.927 6.93358L63.5949 12.9353C63.8441 13.8317 64.6785 14.438 65.608 14.3979L71.8314 14.1296C73.8562 14.0423 74.7117 16.6754 73.0224 17.7949L67.8298 21.2359C67.0543 21.7498 66.7356 22.7307 67.0609 23.6024L69.2392 29.4383C69.9479 31.337 67.708 32.9643 66.1213 31.7036L61.2442 27.8285C60.5157 27.2497 59.4843 27.2497 58.7558 27.8285L53.8787 31.7036C52.292 32.9643 50.0521 31.337 50.7608 29.4383L52.9391 23.6024C53.2644 22.7307 52.9457 21.7498 52.1702 21.2359L46.9776 17.7949C45.2883 16.6754 46.1438 14.0423 48.1686 14.1296L54.392 14.3979C55.3215 14.438 56.1559 13.8317 56.4051 12.9353L58.073 6.93358Z" fill="#D6694C"/>
<path d="M98.073 6.93358C98.6157 4.98096 101.384 4.98096 101.927 6.93358L103.595 12.9353C103.844 13.8317 104.678 14.438 105.608 14.3979L111.831 14.1296C113.856 14.0423 114.712 16.6754 113.022 17.7949L107.83 21.2359C107.054 21.7498 106.736 22.7307 107.061 23.6024L109.239 29.4383C109.948 31.337 107.708 32.9643 106.121 31.7036L101.244 27.8285C100.516 27.2497 99.4843 27.2497 98.7558 27.8285L93.8787 31.7036C92.292 32.9643 90.0521 31.337 90.7608 29.4383L92.9391 23.6024C93.2644 22.7307 92.9457 21.7498 92.1702 21.2359L86.9776 17.7949C85.2883 16.6754 86.1438 14.0423 88.1686 14.1296L94.392 14.3979C95.3215 14.438 96.1559 13.8317 96.4051 12.9353L98.073 6.93358Z" fill="#D6694C"/>
<path d="M138.073 6.93358C138.616 4.98096 141.384 4.98096 141.927 6.93358L143.595 12.9353C143.844 13.8317 144.678 14.438 145.608 14.3979L151.831 14.1296C153.856 14.0423 154.712 16.6754 153.022 17.7949L147.83 21.2359C147.054 21.7498 146.736 22.7307 147.061 23.6024L149.239 29.4383C149.948 31.337 147.708 32.9643 146.121 31.7036L141.244 27.8285C140.516 27.2497 139.484 27.2497 138.756 27.8285L133.879 31.7036C132.292 32.9643 130.052 31.337 130.761 29.4383L132.939 23.6024C133.264 22.7307 132.946 21.7498 132.17 21.2359L126.978 17.7949C125.288 16.6754 126.144 14.0423 128.169 14.1296L134.392 14.3979C135.322 14.438 136.156 13.8317 136.405 12.9353L138.073 6.93358Z" fill="#D6694C"/>
<path d="M178.073 6.93358C178.616 4.98096 181.384 4.98096 181.927 6.93358L183.595 12.9353C183.844 13.8317 184.678 14.438 185.608 14.3979L191.831 14.1296C193.856 14.0423 194.712 16.6754 193.022 17.7949L187.83 21.2359C187.054 21.7498 186.736 22.7307 187.061 23.6024L189.239 29.4383C189.948 31.337 187.708 32.9643 186.121 31.7036L181.244 27.8285C180.516 27.2497 179.484 27.2497 178.756 27.8285L173.879 31.7036C172.292 32.9643 170.052 31.337 170.761 29.4383L172.939 23.6024C173.264 22.7307 172.946 21.7498 172.17 21.2359L166.978 17.7949C165.288 16.6754 166.144 14.0423 168.169 14.1296L174.392 14.3979C175.322 14.438 176.156 13.8317 176.405 12.9353L178.073 6.93358Z" fill="#D6694C"/>
</svg>
