<svg width="564" height="497" viewBox="0 0 564 497" fill="none" xmlns="http://www.w3.org/2000/svg">
<path d="M541.644 156.882C539.848 157.063 537.97 157.08 536.06 156.948C531.365 156.635 526.523 155.317 522.289 152.666C519.423 150.87 516.837 148.465 514.778 145.336C520.016 145.665 524.134 145.467 527.396 144.891C532.798 143.936 535.928 141.942 538.135 139.62C542.797 134.711 543.274 128.337 552.663 127.431C560.042 126.723 563.057 132.9 563.436 136.836C564.473 147.576 552.91 155.795 541.644 156.882Z" fill="#C1CFDC"/>
<path d="M536.06 156.945C531.366 156.632 526.523 155.315 522.29 152.663L527.396 144.888C532.799 143.933 535.929 141.94 538.136 139.617C538.63 144.246 538.169 150.274 536.06 156.945Z" fill="#ACACBC"/>
<path d="M527.379 88.7199C516.442 70.8482 497.005 66.582 485.179 66.582C480.995 66.582 477.338 67.0597 474.489 67.6197C472.71 67.9656 472.561 68.8881 474.143 69.7775C477.421 71.6388 480.073 74.7849 481.407 77.7169" fill="#D8E9F5"/>
<path d="M367.982 200.27C211.666 223.692 96.0684 282.644 96.0684 329.572C96.0684 379.975 211.65 458.973 347.195 496.496C390.334 438.137 453.256 359.023 528.087 309.312C359.269 286.054 340.442 278.164 340.442 264.888C340.442 247.197 379.117 220.892 408.255 208.95L367.966 200.27H367.982Z" fill="#78BBFF"/>
<path d="M382.576 168.415C377.536 183.833 340.129 189.944 318.699 191.41C317.76 178.76 315.306 164.989 311.765 150.955C319.44 151.087 335.22 150.033 342.534 147.974C339.338 139.211 334.611 130.794 330.641 124.535C321.598 125.688 319.803 121.356 316.673 117.106C313.692 113.071 315.355 110.238 316.805 108.755C314.894 105.971 313.906 102.595 313.906 99.4816C313.906 89.9116 322.175 88.6268 325.683 92.1352C325.766 92.1352 333.754 87.9844 341.397 87.9844C352.351 87.9844 355.925 95.5778 355.76 108.162C359.565 112.577 390.005 145.701 382.576 168.448V168.415Z" fill="#DFE9EF"/>
<path d="M244.825 314.151C257.837 309.769 267.819 308.863 276.862 308.863C296.743 308.863 305.49 316.045 290.945 321.349C297.171 320.36 304.254 319.85 311.502 319.85C347.739 319.85 362.366 331.907 362.366 343.042C362.366 361.045 324.3 381.569 278.328 381.569C256.832 381.569 233.41 375.228 233.41 358.723C233.41 355.132 234.909 351.41 238.137 347.819C215.176 350.85 186.433 345.727 186.433 331.841C186.433 316.523 225.108 309.374 244.825 314.151Z" fill="#6996D6"/>
<path d="M286.234 266.436C282.001 284.325 268.082 305.672 257.606 305.672C255.201 305.672 252.764 305.046 250.441 304.338C239.883 301.126 229.852 296.184 220.874 289.777C216.279 296.184 209.855 301.439 205.49 301.439C200.516 301.439 198.522 295.706 198.522 288.129C198.522 278.79 201.537 266.65 205.721 258.909C208.356 254 212.029 249.24 217.284 247.379C217.284 247.379 272.118 242.602 286.234 266.469V266.436Z" fill="#DFE9EF"/>
<path d="M194.883 223.972C188.113 204.668 180.816 176.863 172.119 157.032C163.422 137.2 149.8 116.66 140.493 99.0679C127.052 73.6521 130.709 40.5276 151.299 19.9381C174.557 -3.3199 224.812 -9.33205 256.141 22.2935C284.472 50.9212 324.564 143.179 324.564 202.922C324.564 247.757 297.007 269.335 257.376 269.335C231.351 269.335 205.82 255.153 194.883 223.972Z" fill="white"/>
<path d="M324.086 190.965C324.399 195.066 324.58 199.069 324.58 202.923C324.58 247.759 297.023 269.337 257.393 269.337C231.367 269.337 205.836 255.155 194.899 223.974C192.923 218.324 190.897 211.966 188.805 205.279" stroke="#AAB3CC" stroke-width="2" stroke-linecap="round" stroke-linejoin="round"/>
<path d="M316.328 147.462C308.932 118.455 286.482 107.123 261.181 107.123C227.167 107.123 188.936 129.162 173.75 160.87C173.206 159.569 172.662 158.284 172.119 157.032C163.405 137.217 149.8 116.66 140.493 99.0518C127.052 73.6525 130.709 40.528 151.299 19.922C174.54 -3.31948 224.812 -9.3481 256.141 22.2939C276.566 42.9329 303.118 96.6634 316.328 147.445V147.462Z" fill="#FFAEF4"/>
<path d="M191.259 156.997C169.796 149.387 152.287 145.269 140.971 146.389C125.949 147.871 107.632 165.644 97.0738 176.96C88.6074 182.099 85.1318 186.398 85.1318 192.378C85.1318 197.78 87.7673 201.734 90.3533 206.461C89.6451 207.729 89.1344 209.475 89.1344 211.188C89.1344 214.236 91.2758 216.426 95.6902 216.426C99.1163 216.426 101.851 215.059 104.568 211.551C106.084 212.523 109.642 214.005 113.364 214.005C115.209 214.005 117.416 212.868 119.706 207.861C123.165 200.268 120.315 197.5 123.988 194.437C127.728 191.307 135.37 186.316 137.989 186.316C143.178 186.316 172.464 194.832 193.038 207.828" fill="white"/>
<path d="M110.465 207.816C108.439 207.816 106.364 209.266 104.568 211.555" stroke="#AAB3CC" stroke-width="2" stroke-linecap="round" stroke-linejoin="round"/>
<path d="M330.642 124.551C332.009 124.37 333.541 124.074 335.287 123.629" stroke="#AAB3CC" stroke-width="2" stroke-linecap="round" stroke-linejoin="round"/>
<path d="M337.841 115.045C336.622 112.558 331.038 110.696 326.113 112.558C326.541 112.327 330.181 110.252 330.181 107.946C330.181 105.64 328.551 104.52 326.245 104.52C323.939 104.52 320.858 105.64 318.19 107.6C317.992 107.748 317.449 108.11 316.889 108.687" stroke="#AAB3CC" stroke-width="2" stroke-linecap="round" stroke-linejoin="round"/>
<path d="M346.141 96.1367C346.092 98.4427 346.8 100.979 346.8 103.5C346.8 112.411 338.383 110.829 328.78 112.048" stroke="#AAB3CC" stroke-width="2" stroke-linecap="round" stroke-linejoin="round"/>
<path d="M344.627 154.673C344.067 152.433 343.342 150.176 342.535 147.969" stroke="#AAB3CC" stroke-width="2" stroke-linecap="round" stroke-linejoin="round"/>
<path d="M143.886 80.6848C145.385 80.7177 146.093 78.7246 146.422 77.1434C149.536 62.2859 156.552 48.4003 166.435 37.5291C168.297 35.4866 170.767 33.1147 170.767 29.6062C170.767 27.4319 169.862 25.0435 166.765 24.9447C165.332 24.8953 163.783 25.4059 162.449 26.0483C144.232 34.63 140.542 54.7419 140.542 67.5404C140.542 70.9994 140.674 80.6353 143.853 80.7012L143.886 80.6848Z" fill="#FFDEFA"/>
<path d="M157.492 70.9648C154.774 74.5062 148.745 81.6385 146.423 85.4599C159.93 107.12 165.563 117.3 168.264 121.681C170.702 125.618 174.853 130.213 177.851 126.952C179.251 125.437 180.157 123.098 180.009 119.54C179.679 111.502 173.552 98.0278 157.475 70.9813L157.492 70.9648Z" fill="#FFDEFA"/>
<path d="M69.8628 353.177C57.4267 340.906 51.9746 326.905 51.9746 323.446C51.9746 314.65 73.7995 293.55 110.548 281.789C74.1125 302.807 55.6972 324.072 69.8628 353.177Z" fill="#FFC648"/>
<path d="M158.3 239.109C112.179 260.358 132.571 289.776 168.413 303.497" stroke="#DFE9EF" stroke-width="2" stroke-linecap="round" stroke-linejoin="round"/>
<path d="M374.357 254.658C374.357 263.536 385.772 265.431 397.171 262.663C382.527 258.875 374.852 255.054 385.459 240.18C383.647 241.53 374.357 247.773 374.357 254.658Z" fill="#FFC648"/>
<path d="M73.5363 175.791C70.7691 159.715 89.5303 149.832 105.541 148.465" stroke="#78BBFF" stroke-width="2" stroke-linecap="round" stroke-linejoin="round"/>
<path d="M349.024 377.967C362.91 385.066 380.238 391.457 403.15 398.737L416.641 385.412C391.851 380.437 374.737 375.216 359.369 369.648L349.041 377.967H349.024Z" fill="#DBE9FF"/>
<path d="M276.862 339.635C283.599 343.968 290.418 347.921 301.389 352.912L308.356 348.728C297.534 344.412 289.265 340.278 282.512 337L276.862 339.635Z" fill="#9AB6E8"/>
<path d="M264.376 158.88C275.083 158.88 286.877 147.96 286.877 135.54C286.877 123.894 280.057 118.805 272.448 118.805C262.976 118.805 252.303 126.925 252.303 142.919C252.303 151.419 256.174 158.88 264.36 158.88H264.376Z" fill="#FFCAF5"/>
<path d="M275.247 136.952C275.247 141.646 271.607 147.576 267.209 147.576C265.447 147.576 264.129 145.286 264.129 142.882C264.129 139.324 265.628 134.646 269.317 132.027C274.292 130.808 275.231 134.168 275.231 136.935L275.247 136.952Z" fill="black" stroke="#C45BB0" stroke-width="2" stroke-linecap="round" stroke-linejoin="round"/>
<path d="M275.858 130.082C273.173 130.082 270.998 130.823 269.318 132.042" stroke="#C45BB0" stroke-width="2" stroke-linecap="round" stroke-linejoin="round"/>
<path d="M225.354 90.4023C231.482 92.906 236.16 95.3768 242.073 99.5276" stroke="black" stroke-width="4" stroke-linecap="round" stroke-linejoin="round"/>
<path d="M272.415 99.1817C276.269 95.9862 278.938 93.6637 281.771 90.4023" stroke="black" stroke-width="4" stroke-linecap="round" stroke-linejoin="round"/>
<path d="M228.172 66.5836C222.357 71.558 217.004 76.9937 210.893 83.8953C206.478 88.8862 204.354 86.959 204.354 82.5776C204.354 74.7865 210.777 59.1055 226.442 59.1055C231.383 59.1055 233.854 61.7409 228.172 66.5836Z" fill="black"/>
<path d="M267.637 60.2148C263.075 60.2148 262.284 62.5703 265.957 65.2881C271.722 69.5378 276.878 74.2157 283.104 80.5244C285.493 82.9457 287.024 82.2704 286.893 78.8772C286.679 73.6557 283.878 68.7307 279.909 65.2716C276.384 62.175 271.953 60.2313 267.637 60.2148Z" fill="black"/>
<path d="M279.711 44.1547C281.308 45.6866 283.68 48.5526 283.68 51.2869C283.68 53.0659 282.659 54.7954 279.711 56.0966C271.425 48.5691 257.672 44.8794 242.023 44.83C202.607 44.6818 152.319 66.0126 145.648 108.46C134.579 109.778 138.318 102.283 135.913 98.3794C134.941 96.8146 130.099 93.8661 130.099 89.7318C130.099 80.0794 157.442 21.918 231.333 21.918C246.125 21.918 259.105 25.1299 267.209 28.4902C271.672 30.335 273.88 31.801 275.049 32.9704C278.162 36.0836 276.499 41.1239 279.678 44.1712L279.711 44.1547Z" fill="#F19661"/>
<path d="M240.772 219.034C252.649 206.796 263.783 198.659 277.932 191.642C313.149 174.182 324.564 227.55 328.731 273.621C343.654 259.719 362.366 259.571 362.366 281.116C362.366 290.768 355.366 304.275 344.643 314.998C340.558 319.083 323.691 331.832 309.476 331.832C301.125 331.832 294.898 326.989 289.479 314.537C279.168 290.867 266.073 255.321 266.468 244.829" fill="white"/>
<path d="M308.307 331.83C308.126 331.83 307.944 331.83 307.763 331.83C301.586 331.567 301.652 326.823 301.866 324.879C302.41 320.004 305.062 315.458 308.373 311.537C311.683 307.617 315.67 304.224 319.425 300.65C323.164 297.075 329.819 289.762 332.817 285.627C338.203 278.149 339.817 269.469 350.804 269.469C359.583 269.469 362.35 277.276 362.35 281.262C362.35 291.145 355.679 304.207 345.286 314.601C335.452 324.435 322.275 331.863 308.307 331.863V331.83Z" fill="#DFE9EF"/>
<path d="M241.366 203.169C246.818 202.626 251.743 203.037 257.13 204.421" stroke="#AAB3CC" stroke-width="2" stroke-linecap="round" stroke-linejoin="round"/>
<path d="M302.262 323.855C302.954 318.601 305.737 313.808 309.163 309.756C312.589 305.704 316.674 302.261 320.512 298.621C324.35 294.981 331.977 287.881 334.332 283.121" stroke="#AAB3CC" stroke-width="2" stroke-linecap="round" stroke-linejoin="round"/>
<path d="M240.772 219.034C252.649 206.796 263.783 198.659 277.932 191.642C313.149 174.182 324.564 227.55 328.731 273.621C343.654 259.719 362.366 259.571 362.366 281.116C362.366 290.768 355.366 304.275 344.643 314.998C340.558 319.083 323.691 331.832 309.476 331.832C301.125 331.832 294.898 326.989 289.479 314.537C279.168 290.867 266.073 255.321 266.468 244.829" stroke="#AAB3CC" stroke-width="2" stroke-linecap="round" stroke-linejoin="round"/>
<path d="M322.258 278.246C324.811 276.73 326.771 275.182 328.731 273.617" stroke="#AAB3CC" stroke-width="2" stroke-linecap="round" stroke-linejoin="round"/>
<path d="M220.876 289.774C219.69 288.934 218.554 288.06 217.417 287.188" stroke="#AAB3CC" stroke-width="2" stroke-linecap="round" stroke-linejoin="round"/>
<path d="M240.559 267.293C241.432 271.856 242.502 275.133 244.594 279.498" stroke="#AAB3CC" stroke-width="2" stroke-linecap="round" stroke-linejoin="round"/>
<path d="M317.481 152.012C319.738 160.709 320.99 168.055 322.818 179.503" stroke="#707099" stroke-width="2" stroke-linecap="round" stroke-linejoin="round"/>
<path d="M271.805 268.299C267.21 268.991 262.384 269.336 257.376 269.336C242.074 269.336 226.937 264.428 214.83 254.051" stroke="#707099" stroke-width="2" stroke-linecap="round" stroke-linejoin="round"/>
<path d="M316.329 147.464C308.933 118.458 286.482 107.125 261.181 107.125C231.994 107.125 199.726 123.35 181.541 147.975" stroke="#DD80CC" stroke-width="2" stroke-linecap="round" stroke-linejoin="round"/>
<path d="M203.53 37.9585C223.708 32.1769 244.298 32.0287 258.463 35.8995" stroke="#D86E30" stroke-width="2" stroke-linecap="round" stroke-linejoin="round"/>
<path d="M136.54 96.3647C137.413 92.5268 139.044 88.096 141.564 84.7852" stroke="#D86E30" stroke-width="2" stroke-linecap="round" stroke-linejoin="round"/>
<path d="M191.259 156.997C169.796 149.387 152.287 145.269 140.971 146.389C125.949 147.871 107.632 165.644 97.0738 176.96C88.6074 182.099 85.1318 186.398 85.1318 192.378C85.1318 197.78 87.7673 201.734 90.3533 206.461C89.6451 207.729 89.1344 209.475 89.1344 211.188C89.1344 214.236 91.2758 216.426 95.6902 216.426C99.1163 216.426 101.851 215.059 104.568 211.551C106.084 212.523 109.642 214.005 113.364 214.005C115.209 214.005 117.416 212.868 119.706 207.861C123.165 200.268 120.315 197.5 123.988 194.437C127.728 191.307 135.37 186.316 137.989 186.316C143.178 186.316 172.464 194.832 193.038 207.828" stroke="#AAB3CC" stroke-width="2" stroke-linecap="round" stroke-linejoin="round"/>
<path d="M422.751 317.121L475.773 326.246" stroke="#DFE9EF" stroke-width="2" stroke-linecap="round" stroke-linejoin="round"/>
<path d="M392.806 324.004L414.219 329.209" stroke="#DFE9EF" stroke-width="2" stroke-linecap="round" stroke-linejoin="round"/>
<path d="M238.928 395.062C250.985 401.602 259.649 405.11 274.424 410.875" stroke="#DFE9EF" stroke-width="2" stroke-linecap="round" stroke-linejoin="round"/>
<path d="M274.276 435.652C282.463 439.358 288.277 441.253 298.193 444.316" stroke="#DFE9EF" stroke-width="2" stroke-linecap="round" stroke-linejoin="round"/>
<path d="M523.558 162.5L523.525 162.533C511.781 176.353 494.058 184.638 475.659 186.417C454.064 188.492 431.564 181.574 416.789 164.032C416.789 164.032 441.299 164.674 440.607 130.413C440.574 128.486 440.459 126.46 440.245 124.302C440.129 123.1 440.047 121.93 439.998 120.761C438.762 90.2554 460.62 72.5319 483.96 70.2917C508.19 67.9528 534.018 82.2996 537.296 116.379C539.108 135.272 533.474 150.855 523.558 162.5Z" fill="#D8E9F5"/>
<path d="M533.639 113.708C532.173 107.432 523.261 79.546 490.911 84.191C456.864 89.0666 452.071 115.948 456.156 133.342C459.45 147.36 478.162 166.846 500.778 163.601C534.66 158.742 536.752 126.951 533.639 113.725V113.708Z" fill="#E4F5FF"/>
<path d="M481.819 82.2049C478.425 78.8612 473.072 77.9058 468.839 78.8118C469.877 79.8989 470.601 80.8048 471.178 82.1061" stroke="#ACACBC" stroke-width="2" stroke-linecap="round" stroke-linejoin="round"/>
<path d="M490.434 103.449C474.884 103.252 458.759 101.703 442.666 98.8704C441.645 98.6892 441.085 97.4703 441.431 96.1855L443.177 89.4486C443.588 87.8838 444.922 86.8131 446.158 87.0272C476.153 92.0676 505.621 92.4958 530.476 88.2297C531.712 88.0155 533.029 89.0862 533.425 90.651L535.138 97.4044C535.467 98.7056 534.924 99.941 533.902 100.122C520.593 102.544 505.917 103.664 490.45 103.466L490.434 103.449Z" fill="#F19661"/>
<path d="M524.904 126.869C525.531 124.635 524.853 122.492 523.39 122.081C521.928 121.671 520.234 123.148 519.607 125.382C518.98 127.615 519.657 129.759 521.12 130.169C522.583 130.58 524.277 129.102 524.904 126.869Z" fill="black" stroke="black" stroke-width="2" stroke-miterlimit="10"/>
<path d="M509.791 143.091C510.564 141.394 510.359 139.639 509.333 139.171C508.307 138.703 506.847 139.7 506.074 141.396C505.3 143.093 505.505 144.848 506.531 145.316C507.558 145.784 509.017 144.788 509.791 143.091Z" fill="black" stroke="black" stroke-width="2" stroke-miterlimit="10"/>
<path d="M496.594 127.143C497.185 124.74 496.211 122.434 494.418 121.993C492.625 121.552 490.692 123.141 490.1 125.544C489.509 127.947 490.483 130.252 492.276 130.694C494.069 131.135 496.002 129.545 496.594 127.143Z" fill="black" stroke="black" stroke-width="2" stroke-miterlimit="10"/>
<path d="M528.566 111.535C525.898 109.031 522.34 107.713 521.335 109.476C521.154 109.805 520.973 110.843 521.763 111.601C522.702 112.474 524.251 112.457 525.519 112.885C528.105 113.726 529.604 115.076 529.999 114.384C530.263 113.923 529.884 112.82 528.55 111.551L528.566 111.535Z" fill="black" stroke="black" stroke-width="2" stroke-miterlimit="10"/>
<path d="M497.22 109.264C495.556 107.156 490.252 108.589 486.431 111.455C484.52 112.888 484.042 114.189 484.471 114.716C485.13 115.54 487.287 114.024 491.142 113.118C493.052 112.674 495.408 112.739 496.742 111.735C497.895 110.878 497.533 109.643 497.22 109.264Z" fill="black" stroke="black" stroke-width="2" stroke-miterlimit="10"/>
<path d="M523.525 162.53C511.781 176.35 494.058 184.635 475.659 186.414C454.064 188.489 431.564 181.571 416.789 164.029C416.789 164.029 425.107 164.243 431.927 157.654C433.047 156.567 434.134 155.299 435.122 153.816C436.44 151.84 437.609 149.484 438.515 146.668C438.532 146.602 438.565 146.536 438.581 146.454C439.965 142.204 440.739 136.949 440.607 130.41C441.282 135.632 442.518 140.408 444.198 144.757C445.252 147.508 446.504 150.077 447.904 152.482C464.326 180.55 502.343 184.404 523.525 162.53Z" fill="#CBDDEB"/>
<path d="M429.258 129.063C415.372 130.397 409.541 139.143 410.216 146.226C410.744 151.678 415.158 156.142 422.735 155.417C430.345 154.692 434.924 145.65 444.477 144.727C448.101 144.381 452.45 145.205 457.935 148.087C452.384 132.917 440.014 128.041 429.241 129.079L429.258 129.063Z" fill="#D8E9F5"/>
<path d="M448.431 134.431C446.01 132.554 443.391 131.186 440.673 130.297" stroke="#AAB3CC" stroke-width="2" stroke-linecap="round" stroke-linejoin="round"/>
<path d="M433.457 156.026C435.73 152.6 438.547 146.687 438.58 146.456C439.996 145.748 442.566 144.645 446.107 144.645C446.107 146.934 439.255 154.775 433.457 156.026Z" fill="#AAB3CC"/>
<path d="M158.299 239.109C135.238 249.734 128.798 262.4 132.619 274.128" stroke="#78BBFF" stroke-width="2" stroke-linecap="round" stroke-linejoin="round"/>
<path d="M9.34527 174.705C9.49352 172.843 10.6959 172.843 10.8442 174.705C11.3548 180.964 13.7926 185.856 16.9058 186.894L18.7506 187.503C20.0024 187.915 20.0024 188.887 18.7506 189.298L16.9058 189.908C13.7926 190.946 11.3548 195.838 10.8442 202.097C10.6959 203.958 9.49352 203.958 9.34527 202.097C8.83465 195.838 6.39685 190.946 3.28371 189.908L1.43888 189.298C0.187039 188.887 0.187039 187.915 1.43888 187.503L3.28371 186.894C6.39685 185.856 8.83465 180.964 9.34527 174.705Z" fill="#FFACD6"/>
<path d="M67.4243 114.305C67.5396 112.872 68.462 112.872 68.5773 114.305C68.9726 119.115 70.8504 122.903 73.2388 123.694L74.6718 124.172C75.6272 124.485 75.6272 125.226 74.6718 125.555L73.2388 126.033C70.8504 126.824 68.9726 130.612 68.5773 135.422C68.462 136.855 67.5396 136.855 67.4243 135.422C67.029 130.612 65.1512 126.824 62.7628 126.033L61.3298 125.555C60.3744 125.242 60.3744 124.501 61.3298 124.172L62.7628 123.694C65.1512 122.903 67.029 119.115 67.4243 114.305Z" fill="#78BBFF"/>
<path d="M342.386 20.482C342.583 18.0112 344.181 18.0112 344.379 20.482C345.054 28.7837 348.283 35.2735 352.417 36.6571L354.871 37.4807C356.535 38.0243 356.535 39.309 354.871 39.8526L352.417 40.6762C348.299 42.0433 345.071 48.5496 344.379 56.8514C344.181 59.3221 342.583 59.3221 342.386 56.8514C341.71 48.5496 338.482 42.0598 334.348 40.6762L331.893 39.8526C330.23 39.309 330.23 38.0243 331.893 37.4807L334.348 36.6571C338.465 35.29 341.694 28.7837 342.386 20.482Z" fill="#FFC648"/>
<path d="M476.728 252.828C476.827 251.625 477.601 251.625 477.7 252.828C478.029 256.88 479.611 260.042 481.62 260.718L482.823 261.113C483.63 261.376 483.63 262.002 482.823 262.266L481.62 262.661C479.611 263.337 478.029 266.499 477.7 270.551C477.601 271.754 476.827 271.754 476.728 270.551C476.399 266.499 474.817 263.337 472.808 262.661L471.605 262.266C470.798 262.002 470.798 261.376 471.605 261.113L472.808 260.718C474.817 260.042 476.399 256.88 476.728 252.828Z" fill="#78BBFF"/>
</svg>
