<svg width="410" height="160" viewBox="0 0 410 160" fill="none" xmlns="http://www.w3.org/2000/svg">
<path d="M248.239 45.093C236.743 33.5968 221.458 27.2656 205.2 27.2656C188.942 27.2656 173.657 33.5968 162.161 45.093C150.665 56.5892 144.334 71.8741 144.334 88.1321C144.334 104.39 150.665 119.675 162.161 131.171C173.658 142.667 188.942 148.999 205.2 148.999C221.458 148.999 236.743 142.667 248.239 131.171C259.736 119.675 266.067 104.39 266.067 88.1321C266.067 71.8741 259.736 56.5892 248.239 45.093Z" fill="white"/>
<path d="M258 88.0001C258 99.7331 254.107 111.134 246.931 120.416C239.754 129.699 229.701 136.338 218.346 139.292C206.991 142.247 194.977 141.35 184.187 136.742C173.396 132.135 164.44 124.077 158.721 113.832C153.003 103.587 150.845 91.7341 152.587 80.1315C154.329 68.5287 159.872 57.8318 168.347 49.7177C176.822 41.6036 187.749 36.531 199.417 35.295C211.084 34.059 222.832 36.7295 232.819 42.888L205 88.0001H258Z" fill="#FF9466"/>
<path d="M253.976 32.0621L240.285 22.6089C239.233 21.8827 237.787 22.1477 237.061 23.1992L233.483 28.3803C233.132 28.8897 232.999 29.5055 233.111 30.1144C233.222 30.7236 233.564 31.253 234.074 31.6046L238.591 34.7235L235.747 38.8425L240.471 42.1048L243.315 37.9858L247.765 41.0578C248.166 41.3345 248.624 41.4672 249.078 41.4672C249.814 41.4672 250.539 41.1178 250.989 40.4671L254.566 35.286C255.292 34.2348 255.027 32.7886 253.976 32.0621Z" fill="white"/>
<path d="M216.867 11H193.535C192.173 11 191.064 12.1082 191.064 13.4702V22.7843C191.064 24.1463 192.173 25.2545 193.535 25.2545H202.33V30.2165H208.071V25.2545H216.867C218.229 25.2545 219.337 24.1463 219.337 22.7843V13.4702C219.337 12.1081 218.229 11 216.867 11Z" fill="white"/>
</svg>
