<svg width="410" height="160" viewBox="0 0 410 160" fill="none" xmlns="http://www.w3.org/2000/svg">
<g clip-path="url(#clip0_8033_855)">
<path d="M272.623 62.4393C268.868 45.8001 253.063 31.5006 236.088 33.1696C226.061 34.1553 217.045 40.3375 210.918 48.3356C208.238 51.8333 206.416 54.373 205.009 56.9383C203.604 54.3709 201.783 51.8312 199.107 48.3292C192.989 40.3247 183.98 34.1319 173.955 33.1356C156.982 31.4495 141.16 45.732 137.388 62.3669C133.615 79.0017 139.87 96.6435 150.125 110.272C160.381 123.901 177.448 141.358 206.365 148C225.416 143.621 249.565 123.95 259.837 110.33C270.105 96.7138 276.376 79.0784 272.623 62.4393Z" fill="#F89996"/>
<path fill-rule="evenodd" clip-rule="evenodd" d="M185.174 93.5053C186.508 91.7264 189.032 91.3658 190.811 92.7C198.923 98.7842 210.077 98.7842 218.189 92.7C219.968 91.3658 222.492 91.7264 223.826 93.5053C225.16 95.2842 224.8 97.8079 223.021 99.1421C212.046 107.374 196.954 107.374 185.979 99.1421C184.2 97.8079 183.839 95.2842 185.174 93.5053Z" fill="#33363C"/>
<circle cx="187.053" cy="75.7909" r="8.05263" fill="#33363C"/>
<circle cx="221.947" cy="75.7909" r="8.05263" fill="#33363C"/>
<path fill-rule="evenodd" clip-rule="evenodd" d="M434.13 118.847L439.734 120.089C437.903 114.418 435.938 108.791 433.863 103.21C420.928 67.5133 399.631 33.2622 366.076 14.1468C347.867 3.80073 325.732 -2.97236 304.821 2.28103C293.29 5.11814 282.594 13.4408 279.879 25.4781C277.666 34.2505 279.34 43.5202 282.941 51.6394C283.99 54.2165 285.366 56.8961 286.777 59.644C291.547 68.9347 296.718 79.0075 291.025 88.55C289.891 90.0352 288.37 91.1794 286.655 91.899C285.135 92.3119 283.369 93.0043 283.505 94.8949C285.062 101.415 295.976 91.9713 296.692 88.4074C300.937 77.2384 296.006 67.1766 291.026 57.0127C285.015 44.7469 278.932 32.3324 288.813 17.6435C306.986 -3.24821 341.787 6.06747 362.67 17.8201C394.231 35.51 414.901 67.0336 427.553 100.354C429.856 106.443 432.063 112.612 434.13 118.847Z" fill="#B0B0B0"/>
<path d="M287.288 98.7977C286.738 100.274 284.931 100.523 283.576 100.716C282.753 100.737 281.271 101.389 281.054 100.186C281.019 99.8721 281.176 99.5805 281.427 99.4178C280.179 98.1887 278.961 95.7217 278.866 94.9015C278.526 93.2802 278.344 91.096 279.177 89.5609C279.126 89.0791 279.554 88.7117 280.15 88.4394C280.235 88.3762 280.327 88.3172 280.42 88.2615C280.529 88.2147 280.646 88.1985 280.761 88.2093C281.578 87.9485 282.489 87.8265 282.915 87.81C286.635 87.9593 288.036 95.9105 287.288 98.7977Z" fill="#B0B0B0"/>
<path d="M273.076 114.749C261.94 123.368 244.959 116.881 242.406 102.965C241.448 98.0317 242.576 92.7309 245.334 88.5522C249.829 82.6822 257.692 79.6153 264.939 80.8302C280.845 84.0138 285.827 104.648 273.076 114.749Z" fill="#FEFEFE"/>
<path d="M264.668 117.443C265.446 117.282 266.215 117.075 266.967 116.822C267.753 116.546 268.522 116.219 269.235 115.868C269.952 115.499 270.649 115.09 271.23 114.693C271.9 114.235 272.538 113.736 273.07 113.267C273.687 112.712 274.268 112.123 274.745 111.577C275.26 110.973 275.735 110.348 276.118 109.778C276.58 109.081 276.992 108.357 277.317 107.701C277.669 106.975 277.976 106.228 278.207 105.562C278.456 104.818 278.661 104.063 278.804 103.398C278.969 102.578 279.083 101.753 279.139 101.026C279.198 100.183 279.202 99.3391 279.153 98.4931C279.097 97.7084 278.998 96.9328 278.859 96.1941C278.695 95.3737 278.482 94.5668 278.216 93.7714C277.944 92.9877 277.626 92.2301 277.309 91.5844C276.942 90.8533 276.533 90.1475 276.078 89.4646C275.622 88.8016 275.133 88.1674 274.673 87.6446C274.119 87.0219 273.533 86.4383 272.987 85.9626C272.386 85.4427 271.756 84.9606 271.098 84.5192C270.446 84.0893 269.769 83.6997 269.162 83.3963C268.453 83.0482 267.727 82.7418 267.05 82.5075C266.89 82.453 266.731 82.4015 266.572 82.35C265.995 82.1671 265.413 82.0124 264.822 81.8891C264.218 81.7634 263.607 81.6697 262.993 81.606C262.969 81.6029 262.949 81.5987 262.925 81.5984C262.901 81.5953 262.878 81.5919 262.855 81.5917C262.706 81.577 262.554 81.5631 262.416 81.5522C262.409 81.5509 262.406 81.5515 262.399 81.5503C261.588 81.4986 260.778 81.4966 260.075 81.5373C259.25 81.589 258.437 81.6935 257.734 81.8303C256.92 81.9915 256.116 82.2023 255.348 82.4599C255.332 82.4642 255.317 82.4683 255.303 82.4758C255.281 82.482 255.26 82.4879 255.261 82.491C254.501 82.7556 253.765 83.0701 253.059 83.4193C252.508 83.6989 251.973 84.0035 251.449 84.3345C251.332 84.4103 251.212 84.487 251.095 84.5655C251.048 84.5954 251.001 84.6282 250.957 84.6602C250.902 84.6987 250.847 84.7373 250.792 84.7758C250.651 84.8744 250.511 84.9764 250.372 85.0781C249.96 85.3848 249.562 85.7106 249.189 86.0395C249.181 86.0452 249.176 86.0497 249.168 86.0585L249.152 86.0727C248.543 86.6197 247.968 87.2033 247.452 87.8037C246.958 88.3846 246.497 88.9925 246.135 89.54C245.683 90.225 245.276 90.9335 244.936 91.6173C244.6 92.3094 244.307 93.0227 244.086 93.6529C243.815 94.446 243.594 95.252 243.426 96.0726C243.275 96.8588 243.17 97.6484 243.112 98.4382C243.066 99.2216 243.062 100.006 243.107 100.79C243.161 101.602 243.266 102.412 243.401 103.102C243.562 103.913 243.774 104.714 244.036 105.497C244.303 106.269 244.618 107.028 244.945 107.7C245.318 108.443 245.737 109.162 246.194 109.848C246.647 110.512 247.141 111.145 247.673 111.747C248.189 112.317 248.731 112.86 249.308 113.364C249.901 113.879 250.526 114.353 251.176 114.79C251.815 115.21 252.481 115.593 253.118 115.911C253.819 116.255 254.537 116.557 255.255 116.806C255.986 117.059 256.732 117.26 257.488 117.423C258.262 117.578 259.038 117.685 259.809 117.745C260.61 117.799 261.409 117.807 262.209 117.763C263.059 117.707 263.903 117.594 264.668 117.443ZM269.98 120.627C267.061 121.898 263.842 122.541 260.657 122.484C257.402 122.423 254.183 121.682 251.239 120.281C248.235 118.854 245.585 116.767 243.453 114.207C241.404 111.747 239.893 108.819 239.04 105.731C239.035 105.715 239.032 105.703 239.028 105.688C238.233 102.801 238.006 99.7531 238.376 96.7799C238.764 93.6726 239.777 90.6326 241.376 87.9412C242.2 86.554 243.156 85.2491 244.249 84.0612C245.442 82.7664 246.781 81.6225 248.23 80.6262C250.884 78.8009 253.966 77.5675 257.134 77.0275C257.963 76.8853 258.799 76.7908 259.635 76.7429C259.661 76.7391 259.686 76.7354 259.712 76.7347C261.481 76.6344 263.259 76.7436 265.001 77.0577C265.012 77.0612 265.022 77.0619 265.033 77.0654C265.057 77.0686 265.08 77.0719 265.101 77.0759C265.393 77.1302 265.681 77.1853 265.969 77.2504C266.176 77.2952 266.378 77.348 266.582 77.3967C266.607 77.4032 266.633 77.4125 266.658 77.4188C266.934 77.4905 267.205 77.5668 267.477 77.6464C270.711 78.6057 273.682 80.3061 276.204 82.5486C278.741 84.8098 280.725 87.6786 282.033 90.8149C283.287 93.8146 283.874 97.1059 283.761 100.355C283.755 100.532 283.749 100.702 283.735 100.878C283.737 100.92 283.735 100.96 283.73 101.005C283.715 101.21 283.7 101.42 283.685 101.626C283.652 102.005 283.611 102.383 283.557 102.759C283.341 104.274 282.979 105.764 282.477 107.21C281.477 110.068 279.899 112.727 277.869 114.97C275.675 117.394 272.974 119.325 269.98 120.627Z" fill="#FEFEFE"/>
<path d="M269.279 109.996C266.961 111.919 263.999 112.954 261.006 113.019C258.045 113.081 255.106 112.083 252.74 110.309C250.368 108.525 248.658 105.943 247.866 103.079C247.862 103.067 247.858 103.052 247.855 103.039C247.432 101.487 247.311 99.8581 247.459 98.2597C247.614 96.5961 248.093 94.9814 248.828 93.4865C250.072 90.9636 252.167 88.8385 254.664 87.5629C255.96 86.904 257.338 86.4498 258.773 86.2214C259.44 86.1144 260.114 86.0621 260.789 86.0623C262.778 86.056 264.77 86.5021 266.566 87.3666C269.428 88.7437 271.725 91.1016 273.04 94.0015C274.228 96.6225 274.518 99.6101 273.916 102.42C273.279 105.395 271.608 108.063 269.279 109.996Z" fill="#B0B0B0"/>
</g>
<defs>
<clipPath id="clip0_8033_855">
<rect width="410" height="160" fill="white"/>
</clipPath>
</defs>
</svg>
