<svg width="410" height="160" viewBox="0 0 410 160" fill="none" xmlns="http://www.w3.org/2000/svg">
<path d="M248.239 55.093C236.743 43.5968 221.458 37.2656 205.2 37.2656C188.942 37.2656 173.657 43.5968 162.161 55.093C150.665 66.5892 144.334 81.8741 144.334 98.1321C144.334 114.39 150.665 129.675 162.161 141.171C173.658 152.667 188.942 158.999 205.2 158.999C221.458 158.999 236.743 152.667 248.239 141.171C259.736 129.675 266.067 114.39 266.067 98.1321C266.067 81.8741 259.736 66.5892 248.239 55.093Z" fill="#6E931C"/>
<path d="M258 98C258 109.733 254.107 121.134 246.931 130.416C239.754 139.699 229.701 146.338 218.346 149.292C206.991 152.247 194.977 151.35 184.187 146.742C173.396 142.135 164.44 134.077 158.721 123.832C153.003 113.587 150.845 101.734 152.587 90.1314C154.329 78.5286 159.872 67.8317 168.347 59.7176C176.822 51.6035 187.749 46.5309 199.417 45.2949C211.084 44.0589 222.832 46.7294 232.819 52.8879L205 98H258Z" fill="#ADCE52"/>
<path d="M253.976 42.0621L240.285 32.6089C239.233 31.8827 237.787 32.1477 237.061 33.1992L233.483 38.3803C233.132 38.8897 232.999 39.5055 233.111 40.1144C233.222 40.7236 233.564 41.253 234.074 41.6046L238.591 44.7235L235.747 48.8425L240.471 52.1048L243.315 47.9858L247.765 51.0578C248.166 51.3345 248.624 51.4672 249.078 51.4672C249.814 51.4672 250.539 51.1178 250.989 50.4671L254.566 45.286C255.292 44.2348 255.027 42.7886 253.976 42.0621Z" fill="#6E931C"/>
<path d="M216.867 21H193.535C192.173 21 191.064 22.1082 191.064 23.4702V32.7843C191.064 34.1463 192.173 35.2545 193.535 35.2545H202.33V40.2165H208.071V35.2545H216.867C218.229 35.2545 219.337 34.1463 219.337 32.7843V23.4702C219.337 22.1081 218.229 21 216.867 21Z" fill="#6E931C"/>
</svg>
