<svg width="410" height="160" viewBox="0 0 410 160" fill="none" xmlns="http://www.w3.org/2000/svg">
<path d="M198.54 55.6726C195.339 62.9626 207.323 118.144 217.752 119.103C224.44 119.718 236.197 64.5454 231.256 53.6341C228.31 47.1272 202.382 46.9194 198.54 55.6726Z" fill="#FF9A04"/>
<path d="M212.757 49.9753L201.01 33.8478C202.657 30.7901 208.64 29.5312 208.64 29.5312L214.294 49.1359L212.757 49.9753Z" fill="#ADCE52"/>
<path d="M205.704 24.601L212.25 51.8048C214.885 52.5242 218.549 52.0745 218.549 52.0745L226.577 32.5598C224.313 30.1316 220.113 30.1316 220.113 30.1316L215.708 49.2866L214.803 22.0379C208.956 21.6333 205.704 24.601 205.704 24.601Z" fill="#6E931C"/>
<path d="M242.673 105.5C236.457 114.679 226.049 128.104 220.008 137.03C209.771 152.157 241.425 170.162 249.141 153.036L265.097 115.852L242.673 105.5Z" fill="#6E931C"/>
<path d="M259.233 100.737C250.13 96.3134 244.998 99.2833 240.177 106.2C243.564 110.649 249.022 109.972 249.022 109.972C250.79 117.193 257.275 114.325 257.275 114.325C258.322 121.303 265.386 120.868 265.386 120.868C268.535 112.683 267.218 104.617 259.233 100.737Z" fill="#ADCE52"/>
<path d="M265.293 94.1814C265.293 94.1814 264.062 92.2984 261.148 92.0977C261.148 92.0977 259.769 98.2849 258.103 101.173L260.128 102.096C260.128 102.096 263.988 97.0419 265.293 94.1814Z" fill="#ADCE52"/>
<path d="M153.239 111.622L158.946 102.707L156.718 101.297L149.236 108.449C144.048 104.057 140.823 113.27 148.863 112.337C150.629 121.143 157 117.007 153.239 111.622Z" fill="#FFEFCA"/>
<path d="M188.9 69.3549C163.338 49.085 160.038 91.9783 160.038 91.9783C160.038 91.9783 147.345 94.4813 157.274 102.641C168.953 112.239 168.182 98.5911 168.182 98.5911C168.182 98.5911 212.345 87.9464 188.9 69.3549Z" fill="#DD6D19"/>
</svg>
