<svg width="300" height="300" viewBox="0 0 300 300" fill="none" xmlns="http://www.w3.org/2000/svg">
<path d="M282.307 95.5986C274.959 63.0438 244.037 35.0664 210.824 38.3319C191.206 40.2604 173.567 52.356 161.58 68.0044C156.336 74.8478 152.77 79.8168 150.017 84.8358C147.268 79.8126 143.707 74.8436 138.471 67.9919C126.501 52.331 108.874 40.2146 89.2602 38.2653C56.0515 34.9665 25.0961 62.9104 17.7155 95.4569C10.3348 128.003 22.572 162.52 42.6355 189.185C62.7032 215.851 96.0952 250.005 152.67 263C189.944 254.432 237.194 215.946 257.291 189.298C277.379 162.657 289.65 128.153 282.307 95.5986Z" fill="#F89996"/>
<path fill-rule="evenodd" clip-rule="evenodd" d="M116.015 162.98C118.396 159.805 122.899 159.162 126.073 161.543C140.548 172.399 160.451 172.399 174.926 161.543C178.1 159.162 182.603 159.805 184.984 162.98C187.364 166.154 186.721 170.657 183.547 173.037C163.963 187.725 137.036 187.725 117.452 173.037C114.278 170.657 113.635 166.154 116.015 162.98Z" fill="#33363C"/>
<circle cx="119.368" cy="131.368" r="14.3684" fill="#33363C"/>
<circle cx="181.631" cy="131.368" r="14.3684" fill="#33363C"/>
</svg>
