<svg width="588" height="336" viewBox="0 0 588 336" fill="none" xmlns="http://www.w3.org/2000/svg">
<path d="M169.998 51.2446C169.998 53.4942 169.894 55.3362 170.018 57.1602C170.383 62.5421 170.898 67.9151 171.247 73.2971C171.768 81.2799 172.13 89.2741 172.682 97.2547C173.195 104.679 173.943 112.085 174.452 119.51C175.598 136.214 175.575 152.993 177.74 169.632C179.345 181.988 180.689 194.382 182.57 206.695C183.662 213.843 185.139 220.959 187.697 227.807C190.618 235.623 195.565 241.696 202.647 245.984C205.66 247.808 208.784 249.625 212.094 250.744C222.799 254.361 232.951 253.644 241.96 245.997C245.843 242.7 249.236 238.983 251.319 234.335C253.443 229.597 255.262 224.71 256.992 219.81C257.658 217.919 258.023 215.806 257.994 213.802C257.872 205.995 257.868 198.161 257.197 190.392C256.3 180.022 254.812 169.704 253.594 159.361C251.941 145.323 250.259 131.289 248.669 117.244C246.849 101.164 245.118 85.0721 243.348 68.987C242.575 61.9589 241.846 54.9263 240.997 47.9095C240.83 46.5246 240.211 45.1938 239.684 43.4531C216.312 46.349 193.19 48.1482 169.998 51.2446Z" fill="#7B7EDD"/>
<path d="M253.889 9.29966C253.137 9.18031 252.248 8.88306 251.374 8.92135C245.994 9.1668 240.592 9.26357 235.244 9.83555C224.721 10.9637 214.243 12.5311 203.716 13.6277C187.277 15.3392 170.814 16.8028 154.361 18.3971C153.472 18.4827 152.605 18.8025 151.637 19.0322C151.468 19.9104 151.155 20.6355 151.222 21.3201C151.968 28.7062 152.754 36.0923 153.602 43.4672C153.677 44.1134 154.283 44.6967 154.704 45.4128C166.479 44.0729 178.087 42.7713 189.689 41.4292C210.165 39.0648 230.639 36.6936 251.108 34.2706C253.275 34.0139 255.396 33.3946 257.398 32.9735C257.672 29.0868 255.677 15.9156 253.889 9.29966Z" fill="#7B7EDD"/>
<path d="M162.647 51.8223C160.778 52.1038 159.523 52.3154 158.262 52.4798C156.605 52.696 154.95 52.9775 153.286 53.0541C150.336 53.1869 148.201 51.8516 147.363 48.9872C146.53 46.1386 145.611 43.2472 145.346 40.3176C144.708 33.285 144.425 26.2186 144.019 19.1658C143.965 18.2403 144.04 17.3057 144.06 16.3757C144.112 13.9797 145.447 12.6106 147.654 12.0206C148.728 11.7346 149.831 11.5162 150.937 11.4013C166.475 9.78 182.026 8.26219 197.553 6.55077C207.535 5.44961 217.484 4.06697 227.451 2.82394C236.134 1.74079 244.833 0.916662 253.6 1.00674C259.346 1.06529 260.979 2.24526 261.929 7.76233C263.289 15.6416 264.447 23.5569 265.64 31.4632C265.805 32.5509 265.816 33.6993 265.661 34.7869C265.314 37.1829 264.105 38.9799 261.591 39.5226C258.142 40.268 254.669 40.9143 251.217 41.6506C249.992 41.9118 248.794 42.3082 247.27 42.7293C247.625 45.1545 248.017 47.3163 248.249 49.4939C249.787 63.9193 251.285 78.3493 252.809 92.7747C254.041 104.428 255.147 116.097 256.577 127.726C258.394 142.489 260.682 157.196 262.391 171.971C263.801 184.158 265.433 196.356 265.228 208.672C264.958 224.948 259.709 239.25 248.202 251.036C238.825 260.64 227.525 262.971 214.915 259.566C210.821 258.46 206.849 256.69 203.045 254.776C191.356 248.897 183.06 239.894 179.554 227.132C177.392 219.258 175.39 211.266 174.28 203.193C172.105 187.353 170.456 171.432 168.884 155.518C168.155 148.121 168.189 140.652 167.743 133.225C166.716 116.142 165.597 99.0642 164.536 81.9838C163.993 73.2556 163.498 64.5251 162.973 55.7969C162.913 54.7025 162.798 53.6125 162.647 51.8223ZM169.999 51.2436C169.999 53.4932 169.896 55.3352 170.019 57.1592C170.384 62.5412 170.9 67.9141 171.249 73.2961C171.769 81.279 172.132 89.2731 172.683 97.2537C173.197 104.678 173.944 112.085 174.453 119.509C175.599 136.213 175.577 152.992 177.741 169.631C179.347 181.987 180.691 194.381 182.571 206.694C183.663 213.842 185.141 220.958 187.699 227.806C190.619 235.622 195.567 241.695 202.649 245.983C205.662 247.807 208.785 249.624 212.095 250.743C222.801 254.36 232.952 253.644 241.962 245.996C245.844 242.699 249.238 238.982 251.321 234.334C253.444 229.596 255.264 224.709 256.993 219.809C257.66 217.918 258.025 215.805 257.995 213.801C257.874 205.994 257.869 198.16 257.198 190.391C256.302 180.021 254.813 169.703 253.595 159.36C251.942 145.322 250.26 131.288 248.67 117.244C246.851 101.163 245.119 85.0711 243.349 68.986C242.577 61.958 241.847 54.9254 240.998 47.9085C240.832 46.5236 240.212 45.1928 239.685 43.4522C216.313 46.3481 193.191 48.1473 169.999 51.2436ZM253.89 9.29585C253.138 9.17651 252.248 8.87926 251.375 8.91754C245.995 9.163 240.593 9.25977 235.245 9.83175C224.722 10.9599 214.244 12.5273 203.716 13.6239C187.278 15.3354 170.814 16.799 154.362 18.3933C153.473 18.4789 152.606 18.7987 151.637 19.0284C151.468 19.9066 151.156 20.6317 151.223 21.3163C151.968 28.7024 152.754 36.0885 153.603 43.4634C153.678 44.1096 154.283 44.6929 154.704 45.409C166.479 44.0691 178.088 42.7675 189.689 41.4254C210.166 39.061 230.64 36.6898 251.109 34.2668C253.275 34.0101 255.397 33.3908 257.399 32.9697C257.673 29.083 255.678 15.9118 253.89 9.29585Z" fill="white"/>
<path d="M187.728 132.924C187.728 135.279 187.683 136.932 187.735 138.583C188.095 149.723 188.345 160.87 188.883 172.003C189.489 184.503 192.036 196.706 195.767 208.605C197.479 214.061 200.035 219.281 202.516 224.458C204.462 228.513 207.504 231.828 210.934 234.751C213.996 237.361 217.561 238.8 221.517 239.354C224.42 239.759 226.992 239.079 229.406 237.381C235.542 233.064 240.138 227.613 241.973 220.217C243 216.083 244.016 211.888 244.412 207.663C245.772 193.155 244.477 178.677 243.054 164.256C242.034 153.914 240.3 143.638 238.731 133.354C238.352 130.872 238.375 128.211 236.787 125.562C220.63 127.99 204.518 130.406 187.728 132.924Z" fill="#F8FF9A"/>
<path d="M224.238 227.148C221.047 227.202 218.766 226.65 216.978 224.781C215.618 223.358 215.357 221.631 216.28 220.257C217.258 218.8 218.76 218.436 220.169 219.149C223.657 220.915 226.168 219.679 228.386 216.956C228.726 216.537 229.183 216.008 229.65 215.936C230.681 215.774 231.883 215.574 232.759 215.965C233.372 216.238 233.903 217.488 233.856 218.262C233.78 219.496 233.437 220.856 232.775 221.888C230.647 225.209 227.445 226.853 224.238 227.148Z" fill="#33363C"/>
<path d="M213.68 207.186C213.603 209.265 212.074 210.76 210.174 210.616C208.471 210.488 207.114 209.042 207.069 207.312C207.019 205.389 208.609 203.572 210.365 203.547C212.237 203.518 213.752 205.184 213.68 207.186Z" fill="#33363C"/>
<path d="M231.504 205.783C229.883 205.891 228.219 204.416 228.122 202.788C228.025 201.153 229.48 199.491 231.112 199.374C232.736 199.257 234.366 200.718 234.477 202.389C234.585 204.04 233.155 205.675 231.504 205.783Z" fill="#33363C"/>
<path d="M199.127 92.9531C197.594 94.9911 197.666 96.5584 198.533 98.0896C199.229 99.3147 200.408 99.7785 201.782 99.5984C203.158 99.4205 204.162 98.7089 204.462 97.2767C204.768 95.813 204.095 94.7771 202.804 94.2142C201.679 93.721 200.478 93.408 199.127 92.9531Z" fill="#F8FF9A"/>
<path d="M223.204 65.3519C223.008 63.6089 220.921 62.0079 219.277 62.3412C218.137 62.5731 217.169 64.0391 217.329 65.2911C217.559 67.0858 219.07 68.5 220.594 68.3469C222.076 68.196 223.357 66.7255 223.204 65.3519Z" fill="#F8FF9A"/>
<path d="M348.054 106.871C346.692 110.438 345.397 113.706 344.194 117.004C336.103 139.192 328.044 161.393 319.953 183.581C312.625 203.672 305.165 223.718 300.058 244.537C296.732 258.088 293.516 271.651 292.17 285.586C291.575 291.74 291.566 297.836 292.82 303.914C295.626 317.504 307.361 325.613 316.645 326.914C320.984 327.522 325.132 327.403 329.33 326.261C339.803 323.413 348.412 318.013 353.92 308.384C356.226 304.351 358.606 300.333 360.541 296.12C368.152 279.546 375.036 262.673 380.425 245.23C382.566 238.301 384.379 231.273 386.541 224.351C395.913 194.347 404.382 164.093 411.98 133.594C412.282 132.382 412.401 131.128 412.64 129.685C391.044 122.055 369.701 114.518 348.054 106.871Z" fill="#7B7EDD"/>
<path d="M428.144 126.971C428.558 126.46 429.18 125.96 429.45 125.312C431.677 120.011 433.974 114.735 435.972 109.346C437.127 106.229 436.591 105.47 433.63 104.239C432.774 103.883 431.896 103.572 431.017 103.27C422.938 100.507 414.854 97.7555 406.774 94.9902C386.57 88.0725 366.369 81.1547 346.169 74.2257C342.382 72.9264 341.555 73.1809 340.119 76.5677C338.234 81.0129 336.399 85.4783 334.647 89.9752C334.201 91.1169 334.149 92.4118 333.939 93.5197C338.583 96.2062 421.325 125.543 428.144 126.971Z" fill="#7B7EDD"/>
<path d="M420.526 132.423C418.726 134.675 418.65 137.181 418.042 139.458C414.63 152.21 411.581 165.066 407.891 177.735C400.245 203.976 392.542 230.206 384.331 256.274C379.472 271.706 373.027 286.584 366.136 301.241C362.63 308.699 358.336 315.671 352.582 321.587C350.015 324.226 347.137 326.771 343.953 328.565C329.032 336.974 312.898 337.039 298.882 326.482C289.701 319.567 285.423 309.857 284.603 298.561C283.788 287.334 285.303 276.27 287.416 265.29C292.422 239.283 300.281 214.107 309.495 189.31C318.757 164.382 327.742 139.352 336.867 114.372C338.013 111.238 339.263 108.139 340.589 104.703C339.445 104.07 338.405 103.361 337.265 102.895C334.513 101.766 331.672 100.848 328.947 99.6609C326.094 98.4178 325.306 96.9767 325.866 93.8961C326.195 92.0879 326.877 90.3269 327.548 88.602C329.971 82.3643 332.496 76.1649 334.91 69.9227C336.826 64.9664 338.272 64.149 343.354 65.8874C356.55 70.4047 369.69 75.0818 382.895 79.572C398.212 84.7783 413.588 89.8 428.903 95.013C432.591 96.2696 436.165 97.8842 439.73 99.4695C443.261 101.041 444.227 102.687 443.959 106.405C443.866 107.693 443.616 108.999 443.229 110.231C440.995 117.347 438.149 124.215 434.571 130.764C432.413 134.709 430.781 135.335 426.327 134.123C424.394 133.597 422.48 132.998 420.526 132.423ZM348.054 106.876C346.692 110.443 345.397 113.71 344.194 117.009C336.103 139.197 328.044 161.398 319.953 183.586C312.625 203.677 305.165 223.723 300.058 244.541C296.732 258.093 293.516 271.656 292.169 285.591C291.575 291.745 291.566 297.841 292.82 303.919C295.626 317.509 307.36 325.618 316.645 326.919C320.984 327.527 325.132 327.408 329.33 326.266C339.803 323.418 348.412 318.018 353.92 308.389C356.226 304.355 358.606 300.338 360.541 296.125C368.152 279.551 375.036 262.678 380.424 245.235C382.566 238.306 384.379 231.278 386.541 224.356C395.913 194.352 404.382 164.098 411.98 133.599C412.282 132.387 412.401 131.133 412.64 129.69C391.044 122.06 369.701 114.523 348.054 106.876ZM428.144 126.972C428.558 126.46 429.18 125.96 429.45 125.312C431.677 120.011 433.974 114.735 435.971 109.346C437.127 106.23 436.591 105.471 433.629 104.239C432.774 103.883 431.895 103.572 431.017 103.271C422.937 100.508 414.853 97.7559 406.774 94.9906C386.57 88.0728 366.368 81.1551 346.169 74.2261C342.381 72.9268 341.555 73.1812 340.118 76.5681C338.234 81.0132 336.398 85.4786 334.646 89.9756C334.2 91.1173 334.149 92.4121 333.939 93.5201C338.583 96.2065 421.325 125.544 428.144 126.972Z" fill="white"/>
<path d="M336.835 181.758C336.288 182.854 335.795 183.634 335.491 184.483C330.472 198.473 325.542 212.498 320.46 226.466C313.429 245.79 309.482 265.773 307.09 286.139C306.453 291.559 306.329 296.889 307.343 302.217C309.164 311.792 318.735 318.962 329.244 313.947C336.88 310.303 343.102 305.3 347.298 297.961C349.043 294.907 350.615 291.714 351.885 288.438C362.896 260.012 372.554 231.112 382.098 202.171C382.379 201.32 382.526 200.424 382.762 199.44C382.01 198.897 381.49 198.323 380.844 198.084C366.242 192.639 351.628 187.234 336.835 181.758Z" fill="#F8FF9A"/>
<path d="M327.097 305.648C319.774 305.734 314.149 300.685 313.696 294.751C313.615 293.681 313.762 292.502 314.151 291.511C315.052 289.218 318.108 288.777 319.574 290.754C320.317 291.756 320.605 293.089 321.132 294.256C322.697 297.724 324.454 298.575 328.185 297.672C329.266 297.411 330.32 297.037 331.403 296.798C332.806 296.49 334.195 296.852 334.675 298.185C334.988 299.057 334.79 300.457 334.254 301.228C332.231 304.141 329.309 305.592 327.097 305.648Z" fill="#33363C"/>
<path d="M319.75 281.811C317.887 281.761 316.145 280.142 316.066 278.386C315.98 276.469 317.615 274.864 319.543 274.974C321.484 275.084 322.934 276.67 322.88 278.624C322.833 280.379 321.382 281.854 319.75 281.811Z" fill="#33363C"/>
<path d="M342.629 292.396C341.118 292.439 339.787 291.293 339.639 289.822C339.454 287.978 341.033 286.298 342.931 286.321C344.483 286.339 345.593 287.528 345.575 289.149C345.552 290.998 344.329 292.347 342.629 292.396Z" fill="#33363C"/>
</svg>
