<svg width="588" height="336" viewBox="0 0 588 336" fill="none" xmlns="http://www.w3.org/2000/svg">
<path d="M426.76 106.599C419.412 74.0438 388.49 46.0664 355.277 49.3319C335.66 51.2604 318.02 63.356 306.033 79.0044C300.789 85.8478 297.224 90.8168 294.47 95.8358C291.721 90.8126 288.16 85.8436 282.925 78.9919C270.954 63.331 253.327 51.2146 233.713 49.2653C200.505 45.9665 169.549 73.9104 162.169 106.457C154.788 139.003 167.025 173.52 187.089 200.185C207.156 226.851 240.548 261.005 297.124 274C334.397 265.432 381.647 226.946 401.744 200.298C421.832 173.657 434.103 139.153 426.76 106.599Z" fill="#F89996"/>
<path fill-rule="evenodd" clip-rule="evenodd" d="M260.469 173.98C262.849 170.805 267.352 170.162 270.526 172.543C285.001 183.399 304.904 183.399 319.379 172.543C322.553 170.162 327.056 170.805 329.437 173.98C331.817 177.154 331.174 181.657 328 184.037C308.416 198.725 281.489 198.725 261.905 184.037C258.731 181.657 258.088 177.154 260.469 173.98Z" fill="#33363C"/>
<circle cx="263.822" cy="142.368" r="14.3684" fill="#33363C"/>
<circle cx="326.083" cy="142.368" r="14.3684" fill="#33363C"/>
<path d="M114.954 39.5823C112.971 37.6632 109.007 10.7866 105.401 11.0013C101.789 11.2223 98.6413 37.8746 96.9537 39.6303C93.5657 43.1545 68.7963 45.647 69.0013 49.059C69.203 52.4679 93.5305 54.0794 96.9601 57.4081C98.8846 59.2663 102.913 86.2165 106.522 85.9987C110.128 85.7872 113.215 59.2118 114.97 57.3921C118.239 53.9865 143.201 51.3658 142.999 47.9377C142.797 44.5129 118.265 42.7957 114.954 39.5823Z" fill="#BDBE51"/>
<path d="M498.567 136.196C497.162 134.842 494.353 115.849 491.796 116.001C489.238 116.155 487.005 134.994 485.811 136.232C483.408 138.723 465.858 140.484 466.001 142.895C466.146 145.304 483.383 146.441 485.816 148.793C487.178 150.106 490.035 169.151 492.592 168.999C495.145 168.852 497.335 150.072 498.576 148.784C500.893 146.377 518.586 144.525 518.441 142.103C518.294 139.682 500.911 138.469 498.567 136.196Z" fill="#F1854F"/>
</svg>
