<svg width="444" height="301" viewBox="0 0 444 301" fill="none" xmlns="http://www.w3.org/2000/svg">
<path d="M346 184.805C337.197 245.174 285.324 291.5 222.697 291.5C153.853 291.5 98 235.544 98 166.479C98 97.4561 153.853 41.5 222.697 41.5V166.479L346 184.805Z" fill="#FFD398"/>
<path d="M373 141.213C373 147.438 372.531 153.534 371.643 159.5L248 141.213V16.5C294.376 16.5 334.898 41.7301 356.493 79.1968C367.02 97.4835 373 118.694 373 141.213Z" fill="#FF9466"/>
<path fill-rule="evenodd" clip-rule="evenodd" d="M325.778 76.1835C328.714 77.718 329.851 81.3425 328.317 84.2783C326.782 87.215 323.159 88.3514 320.22 86.8159C317.285 85.2814 316.15 81.6579 317.683 78.7212C319.218 75.7854 322.843 74.6489 325.778 76.1835Z" fill="#33363C"/>
<path fill-rule="evenodd" clip-rule="evenodd" d="M285.778 93.1834C288.715 94.7179 289.851 98.3423 288.317 101.279C286.782 104.215 283.158 105.351 280.221 103.817C277.286 102.282 276.148 98.6577 277.684 95.7229C279.218 92.7853 282.842 91.6489 285.778 93.1834Z" fill="#33363C"/>
<path d="M297.626 97.2662C300.368 96.9829 303.046 97.4584 305.524 96.1072C307.581 94.983 309.326 92.915 311.02 91.3449C312.587 89.8972 314.504 88.8695 316.576 89.9481C319.471 91.4557 321.575 95.2734 321.925 98.3949C322.271 101.499 321.403 104.825 319.726 107.462C318.853 108.835 317.669 110.348 316.374 111.363C310.478 115.995 302.43 115.205 296.51 110.908C291.218 107.23 289.412 98.1206 297.626 97.2662Z" fill="#33363C"/>
<path d="M298 111.778C299.104 109.264 301.153 107.062 303.595 105.704C309.516 102.329 314.311 106.585 316 111.874C310.553 115.621 303.578 115.15 298 111.778Z" fill="white"/>
<path d="M92.5686 115.245C90.9913 113.718 87.8365 92.3302 84.9672 92.501C82.0927 92.6769 79.5878 113.886 78.2448 115.283C75.5488 118.088 55.8379 120.071 56.001 122.786C56.1615 125.499 75.5207 126.781 78.2499 129.43C79.7814 130.909 82.9872 152.355 85.8591 152.182C88.7284 152.014 91.1849 130.866 92.5814 129.418C95.1831 126.708 115.047 124.622 114.886 121.894C114.726 119.169 95.2036 117.802 92.5686 115.245Z" fill="#F1854F"/>
<path d="M371.205 248.591C370.087 247.513 367.852 232.4 365.817 232.52C363.781 232.643 362.004 247.634 361.055 248.62C359.142 250.602 345.176 252.003 345.29 253.922C345.405 255.839 359.122 256.743 361.058 258.615C362.142 259.66 364.415 274.816 366.45 274.695C368.482 274.578 370.225 259.633 371.212 258.608C373.056 256.693 387.136 255.219 387.02 253.291C386.903 251.365 373.07 250.4 371.205 248.591Z" fill="#A089E4"/>
<path d="M377.571 26.5713C376.453 25.4939 374.218 10.38 372.183 10.5007C370.148 10.6232 368.371 25.6147 367.421 26.6002C365.508 28.582 351.542 29.9837 351.656 31.9024C351.772 33.8194 365.489 34.7238 367.424 36.5957C368.508 37.6407 370.781 52.796 372.817 52.6753C374.848 52.5582 376.591 37.6136 377.578 36.5884C379.422 34.6733 393.502 33.1996 393.387 31.2718C393.269 29.3459 379.437 28.3802 377.571 26.5713Z" fill="#FFC700"/>
</svg>
