<svg width="300" height="334" viewBox="0 0 300 334" fill="none" xmlns="http://www.w3.org/2000/svg">
<path d="M25.9976 50.4164C25.9976 52.6661 25.894 54.508 26.0179 56.3321C26.3827 61.714 26.8983 67.087 27.2474 72.469C27.7676 80.4518 28.1301 88.446 28.6818 96.4266C29.1953 103.851 29.9429 111.257 30.4518 118.682C31.598 135.386 31.5755 152.165 33.7395 168.804C35.3451 181.16 36.6894 193.554 38.5698 205.867C39.6619 213.015 41.1391 220.131 43.6973 226.978C46.6179 234.795 51.5653 240.868 58.6474 245.156C61.6604 246.98 64.7837 248.797 68.094 249.916C78.7994 253.532 88.9508 252.816 97.9605 245.169C101.843 241.872 105.236 238.154 107.319 233.507C109.443 228.769 111.262 223.882 112.992 218.982C113.658 217.091 114.023 214.978 113.994 212.974C113.872 205.167 113.868 197.333 113.197 189.564C112.3 179.194 110.812 168.876 109.594 158.533C107.941 144.495 106.259 130.461 104.669 116.416C102.849 100.336 101.118 84.244 99.3476 68.1589C98.5752 61.1308 97.8456 54.0982 96.9967 47.0814C96.8301 45.6965 96.2108 44.3657 95.6838 42.625C72.3117 45.5209 49.1896 47.3201 25.9976 50.4164Z" fill="#7B7EDD"/>
<path d="M109.889 8.47153C109.137 8.35218 108.248 8.05494 107.374 8.09322C101.994 8.33868 96.5921 8.43545 91.2439 9.00742C80.7209 10.1356 70.243 11.703 59.7155 12.7996C43.2769 14.511 26.8135 15.9747 10.3614 17.569C9.4719 17.6546 8.60491 17.9744 7.63661 18.2041C7.46772 19.0823 7.15473 19.8074 7.22229 20.492C7.96766 27.8781 8.75354 35.2642 9.60249 42.639C9.67681 43.2853 10.2826 43.8686 10.7037 44.5847C22.4787 43.2448 34.0871 41.9432 45.6887 40.6011C66.1649 38.2366 86.6388 35.8655 107.108 33.4425C109.275 33.1857 111.396 32.5665 113.398 32.1454C113.672 28.2587 111.677 15.0875 109.889 8.47153Z" fill="#7B7EDD"/>
<path d="M18.6468 50.9942C16.7777 51.2757 15.5234 51.4873 14.2624 51.6517C12.605 51.8679 10.9499 52.1494 9.28577 52.2259C6.33583 52.3588 4.20105 51.0234 3.36335 48.1591C2.53016 45.3105 1.61141 42.4191 1.34569 39.4894C0.708411 32.4569 0.424665 25.3905 0.0193294 18.3376C-0.0347154 17.4121 0.0396083 16.4776 0.0598751 15.5476C0.111668 13.1516 1.44701 11.7825 3.65384 11.1925C4.72798 10.9065 5.83141 10.6881 6.93708 10.5732C22.475 8.95188 38.0263 7.43407 53.553 5.72265C63.5355 4.62149 73.4842 3.23884 83.451 1.99581C92.1342 0.912667 100.833 0.088537 109.6 0.178612C115.346 0.23716 116.979 1.41714 117.929 6.93421C119.289 14.8135 120.447 22.7288 121.64 30.6351C121.805 31.7227 121.816 32.8711 121.661 33.9588C121.314 36.3548 120.105 38.1518 117.591 38.6945C114.142 39.4398 110.669 40.0861 107.217 40.8225C105.992 41.0837 104.794 41.48 103.27 41.9011C103.625 44.3264 104.017 46.4882 104.249 48.6657C105.787 63.0912 107.285 77.5212 108.809 91.9466C110.041 103.6 111.147 115.269 112.577 126.898C114.394 141.661 116.682 156.368 118.391 171.142C119.801 183.33 121.433 195.528 121.228 207.843C120.958 224.12 115.709 238.421 104.202 250.208C94.8251 259.812 83.5253 262.143 70.9148 258.738C66.8209 257.632 62.8487 255.862 59.0452 253.948C47.3558 248.068 39.0599 239.066 35.5538 226.304C33.392 218.429 31.3901 210.438 30.2799 202.365C28.1046 186.525 26.4563 170.604 24.8844 154.69C24.1548 147.293 24.1886 139.824 23.7427 132.397C22.7159 115.314 21.5967 98.2361 20.5361 81.1557C19.9934 72.4275 19.498 63.697 18.9733 54.9687C18.9125 53.8743 18.7976 52.7844 18.6468 50.9942ZM25.9991 50.4155C25.9991 52.6651 25.8955 54.5071 26.0194 56.3311C26.3842 61.713 26.8998 67.086 27.2489 72.468C27.7691 80.4508 28.1316 88.445 28.6833 96.4256C29.1968 103.85 29.9444 111.256 30.4533 118.681C31.5995 135.385 31.577 152.164 33.741 168.803C35.3466 181.159 36.691 193.553 38.5713 205.866C39.6634 213.014 41.1407 220.13 43.6988 226.977C46.6194 234.794 51.5668 240.867 58.6489 245.155C61.6619 246.979 64.7852 248.796 68.0955 249.915C78.8009 253.531 88.9523 252.815 97.962 245.168C101.844 241.871 105.238 238.154 107.321 233.506C109.444 228.768 111.264 223.881 112.993 218.981C113.66 217.09 114.025 214.977 113.995 212.973C113.874 205.166 113.869 197.332 113.198 189.563C112.302 179.193 110.813 168.875 109.595 158.532C107.942 144.494 106.26 130.46 104.67 116.415C102.851 100.335 101.119 84.243 99.3491 68.1579C98.5767 61.1298 97.8472 54.0972 96.9982 47.0804C96.8316 45.6955 96.2123 44.3647 95.6853 42.624C72.3132 45.5199 49.1911 47.3191 25.9991 50.4155ZM109.89 8.46773C109.138 8.34838 108.248 8.05114 107.375 8.08942C101.995 8.33487 96.5929 8.43165 91.2447 9.00362C80.7217 10.1318 70.2438 11.6992 59.7163 12.7958C43.2777 14.5072 26.8143 15.9709 10.3622 17.5652C9.47267 17.6508 8.60568 17.9706 7.63738 18.2003C7.46849 19.0785 7.1555 19.8036 7.22306 20.4881C7.96843 27.8743 8.75431 35.2604 9.60326 42.6352C9.67757 43.2815 10.2833 43.8648 10.7044 44.5809C22.4794 43.241 34.0878 41.9394 45.6894 40.5973C66.1656 38.2328 86.6396 35.8617 107.109 33.4386C109.275 33.1819 111.397 32.5627 113.399 32.1416C113.673 28.2549 111.678 15.0837 109.89 8.46773Z" fill="white"/>
<path d="M43.7281 132.096C43.7281 134.451 43.6831 136.104 43.7349 137.755C44.0952 148.895 44.3451 160.041 44.8833 171.175C45.4891 183.675 48.0359 195.878 51.7673 207.776C53.4787 213.233 56.0346 218.453 58.5161 223.63C60.4617 227.685 63.504 231 66.9336 233.923C69.9961 236.533 73.5608 237.972 77.5174 238.526C80.42 238.931 82.9917 238.251 85.4057 236.553C91.542 232.236 96.138 226.784 97.9733 219.389C99.0002 215.255 100.016 211.06 100.412 206.835C101.772 192.326 100.477 177.849 99.0542 163.428C98.0341 153.085 96.3002 142.81 94.7306 132.526C94.3523 130.044 94.3749 127.383 92.7873 124.734C76.6301 127.162 60.518 129.578 43.7281 132.096Z" fill="#F8FF9A"/>
<path d="M80.2384 226.32C77.0475 226.374 74.7663 225.822 72.9784 223.953C71.6182 222.53 71.357 220.803 72.2803 219.429C73.2576 217.972 74.7596 217.608 76.1692 218.321C79.6574 220.087 82.1682 218.851 84.3863 216.128C84.7263 215.709 85.1835 215.18 85.6496 215.108C86.681 214.946 87.8835 214.745 88.7594 215.137C89.3719 215.41 89.9034 216.659 89.8561 217.434C89.7795 218.668 89.4373 220.028 88.7752 221.06C86.6472 224.381 83.445 226.025 80.2384 226.32Z" fill="#7B7EDD"/>
<path d="M69.68 206.358C69.6034 208.437 68.0744 209.932 66.1738 209.788C64.4714 209.659 63.1135 208.214 63.0685 206.484C63.019 204.561 64.6088 202.744 66.3652 202.719C68.2365 202.69 69.752 204.356 69.68 206.358Z" fill="#7B7EDD"/>
<path d="M87.5041 204.954C85.8827 205.063 84.2186 203.588 84.1218 201.96C84.0249 200.325 85.4796 198.663 87.1122 198.546C88.7358 198.429 90.3662 199.89 90.4765 201.561C90.5846 203.212 89.1547 204.846 87.5041 204.954Z" fill="#7B7EDD"/>
<path d="M55.1272 92.125C53.5936 94.1629 53.6657 95.7303 54.5327 97.2615C55.2285 98.4865 56.4085 98.9504 57.7821 98.7702C59.158 98.5923 60.1623 97.8807 60.4618 96.4485C60.7681 94.9848 60.0948 93.949 58.8044 93.386C57.6785 92.8929 56.4783 92.5799 55.1272 92.125Z" fill="#F8FF9A"/>
<path d="M79.204 64.5237C79.0081 62.7808 76.9206 61.1798 75.2767 61.513C74.1373 61.745 73.169 63.2109 73.3289 64.463C73.5586 66.2577 75.0696 67.6719 76.5941 67.5187C78.0758 67.3679 79.3571 65.8974 79.204 64.5237Z" fill="#F8FF9A"/>
<path d="M204.054 106.043C202.692 109.61 201.397 112.877 200.194 116.176C192.103 138.364 184.044 160.565 175.953 182.753C168.625 202.844 161.165 222.89 156.058 243.709C152.732 257.26 149.516 270.823 148.17 284.758C147.575 290.912 147.566 297.008 148.82 303.086C151.626 316.676 163.361 324.785 172.645 326.086C176.984 326.694 181.132 326.575 185.33 325.433C195.803 322.585 204.412 317.185 209.92 307.556C212.226 303.523 214.606 299.505 216.541 295.292C224.152 278.718 231.036 261.845 236.425 244.402C238.566 237.473 240.379 230.445 242.541 223.523C251.913 193.519 260.382 163.265 267.98 132.766C268.282 131.554 268.401 130.3 268.64 128.857C247.044 121.227 225.701 113.69 204.054 106.043Z" fill="#7B7EDD"/>
<path d="M284.144 126.143C284.558 125.632 285.18 125.132 285.45 124.483C287.677 119.183 289.974 113.906 291.972 108.518C293.127 105.401 292.591 104.642 289.63 103.41C288.774 103.055 287.896 102.744 287.017 102.442C278.938 99.6791 270.854 96.9273 262.774 94.1621C242.57 87.2443 222.369 80.3266 202.169 73.3976C198.382 72.0983 197.555 72.3527 196.119 75.7395C194.234 80.1847 192.399 84.6501 190.647 89.1471C190.201 90.2888 190.149 91.5836 189.939 92.6916C194.583 95.378 277.325 124.715 284.144 126.143Z" fill="#7B7EDD"/>
<path d="M276.526 131.595C274.726 133.847 274.65 136.353 274.042 138.63C270.63 151.382 267.581 164.238 263.891 176.907C256.245 203.148 248.542 229.378 240.331 255.446C235.472 270.878 229.027 285.756 222.136 300.413C218.63 307.871 214.336 314.843 208.582 320.759C206.015 323.398 203.137 325.942 199.953 327.737C185.032 336.146 168.898 336.211 154.882 325.654C145.701 318.739 141.423 309.029 140.603 297.733C139.788 286.506 141.303 275.442 143.416 264.462C148.422 238.455 156.281 213.279 165.495 188.482C174.757 163.554 183.742 138.524 192.867 113.544C194.013 110.41 195.263 107.311 196.589 103.875C195.445 103.242 194.405 102.533 193.265 102.066C190.513 100.938 187.672 100.019 184.947 98.8328C182.094 97.5897 181.306 96.1485 181.866 93.068C182.195 91.2597 182.877 89.4988 183.548 87.7739C185.971 81.5362 188.496 75.3368 190.91 69.0946C192.826 64.1383 194.272 63.3209 199.354 65.0593C212.55 69.5765 225.69 74.2537 238.895 78.7439C254.212 83.9502 269.588 88.9718 284.903 94.1849C288.591 95.4415 292.165 97.056 295.73 98.6414C299.261 100.213 300.227 101.859 299.959 105.577C299.866 106.865 299.616 108.171 299.229 109.403C296.995 116.519 294.149 123.387 290.571 129.936C288.413 133.881 286.781 134.507 282.327 133.295C280.394 132.768 278.48 132.169 276.526 131.595ZM204.054 106.048C202.692 109.615 201.397 112.882 200.194 116.181C192.103 138.369 184.044 160.57 175.953 182.758C168.625 202.849 161.165 222.895 156.058 243.713C152.732 257.265 149.516 270.828 148.169 284.763C147.575 290.917 147.566 297.013 148.82 303.091C151.626 316.681 163.36 324.79 172.645 326.091C176.984 326.699 181.132 326.58 185.33 325.438C195.803 322.589 204.412 317.189 209.92 307.56C212.226 303.527 214.606 299.51 216.541 295.297C224.152 278.723 231.036 261.85 236.424 244.407C238.566 237.478 240.379 230.45 242.541 223.528C251.913 193.524 260.382 163.27 267.98 132.771C268.282 131.559 268.401 130.305 268.64 128.861C247.044 121.232 225.701 113.695 204.054 106.048ZM284.144 126.143C284.558 125.632 285.18 125.132 285.45 124.484C287.677 119.183 289.974 113.907 291.971 108.518C293.127 105.402 292.591 104.643 289.629 103.411C288.774 103.055 287.895 102.744 287.017 102.443C278.937 99.6795 270.853 96.9277 262.774 94.1624C242.57 87.2447 222.368 80.327 202.169 73.398C198.381 72.0986 197.555 72.3531 196.118 75.7399C194.234 80.1851 192.398 84.6505 190.646 89.1475C190.2 90.2892 190.149 91.584 189.939 92.6919C194.583 95.3784 277.325 124.716 284.144 126.143Z" fill="white"/>
<path d="M192.835 180.93C192.288 182.026 191.795 182.806 191.491 183.654C186.472 197.645 181.542 211.67 176.46 225.638C169.429 244.961 165.482 264.945 163.09 285.31C162.453 290.731 162.329 296.061 163.343 301.389C165.164 310.964 174.735 318.134 185.244 313.119C192.88 309.475 199.102 304.472 203.298 297.133C205.043 294.079 206.615 290.886 207.885 287.61C218.896 259.184 228.554 230.284 238.098 201.343C238.379 200.492 238.526 199.595 238.762 198.611C238.01 198.069 237.49 197.494 236.844 197.256C222.242 191.811 207.628 186.406 192.835 180.93Z" fill="#F8FF9A"/>
<path d="M183.097 304.82C175.774 304.905 170.149 299.857 169.696 293.923C169.615 292.853 169.762 291.673 170.151 290.683C171.052 288.39 174.108 287.949 175.574 289.926C176.317 290.928 176.605 292.261 177.132 293.428C178.697 296.895 180.454 297.747 184.185 296.844C185.266 296.582 186.32 296.209 187.403 295.97C188.806 295.661 190.195 296.024 190.675 297.357C190.988 298.229 190.79 299.629 190.254 300.399C188.231 303.313 185.309 304.764 183.097 304.82Z" fill="#7B7EDD"/>
<path d="M175.75 280.983C173.887 280.933 172.145 279.314 172.066 277.558C171.98 275.641 173.615 274.036 175.543 274.146C177.484 274.256 178.934 275.842 178.88 277.796C178.833 279.55 177.382 281.025 175.75 280.983Z" fill="#7B7EDD"/>
<path d="M198.629 291.568C197.118 291.611 195.787 290.465 195.639 288.994C195.454 287.15 197.033 285.47 198.931 285.492C200.483 285.51 201.593 286.699 201.575 288.321C201.552 290.17 200.329 291.518 198.629 291.568Z" fill="#7B7EDD"/>
</svg>
