<svg width="25" height="25" viewBox="0 0 25 25" fill="none" xmlns="http://www.w3.org/2000/svg">
<path d="M12.3022 21.4012C12.3676 21.4176 12.4347 21.4258 12.502 21.4259C12.5679 21.4255 12.6335 21.4172 12.6974 21.4012C15.6154 20.6694 18.0293 19.4214 19.8717 17.6917C21.4553 16.2057 22.5812 14.3747 23.1285 12.3965C23.5226 10.9734 23.6048 9.51304 23.3672 8.18185C23.1296 6.85066 22.5949 5.73787 21.8204 4.96335C19.8706 3.01146 16.9488 2.98573 14.9236 3.82539C13.9969 4.20909 13.2092 4.77889 12.6465 5.47295C12.5958 5.53535 12.5469 5.59866 12.4998 5.66289C12.4531 5.59866 12.4044 5.53535 12.3537 5.47295C11.7905 4.77889 11.0034 4.20854 10.0767 3.82539C8.05142 2.98573 5.13179 3.01146 3.17989 4.96335C2.40537 5.73787 1.87114 6.85012 1.63304 8.18185C1.39494 9.51359 1.47759 10.9734 1.87169 12.3965C2.41851 14.3747 3.54498 16.2062 5.1285 17.6917C6.97093 19.4214 9.3848 20.6694 12.3022 21.4012Z" fill="#6B5100"/>
</svg>
