<svg width="25" height="25" viewBox="0 0 25 25" fill="none" xmlns="http://www.w3.org/2000/svg">
<path d="M12.3022 21.8583C12.3676 21.8746 12.4347 21.8829 12.502 21.8829C12.5679 21.8825 12.6335 21.8743 12.6974 21.8583C15.6154 21.1264 18.0293 19.8784 19.8717 18.1488C21.4553 16.6627 22.5812 14.8318 23.1285 12.8536C23.5226 11.4304 23.6048 9.97007 23.3672 8.63888C23.1296 7.30769 22.5949 6.1949 21.8204 5.42039C19.8706 3.46849 16.9488 3.44276 14.9236 4.28242C13.9969 4.66612 13.2092 5.23592 12.6465 5.92998C12.5958 5.99238 12.5469 6.05569 12.4998 6.11992C12.4531 6.05569 12.4044 5.99238 12.3537 5.92998C11.7905 5.23592 11.0034 4.66557 10.0767 4.28242C8.05142 3.44276 5.13179 3.46849 3.17989 5.42039C2.40537 6.1949 1.87114 7.30715 1.63304 8.63888C1.39494 9.97062 1.47759 11.4304 1.87169 12.8536C2.41851 14.8318 3.54498 16.6632 5.1285 18.1488C6.97093 19.8784 9.3848 21.1264 12.3022 21.8583Z" fill="#FF6466"/>
</svg>
