<svg width="25" height="24" viewBox="0 0 25 24" fill="none" xmlns="http://www.w3.org/2000/svg">
<path d="M12.334 16C14.5431 16 16.334 14.2091 16.334 12C16.334 9.79086 14.5431 8 12.334 8C10.1248 8 8.33398 9.79086 8.33398 12C8.33398 14.2091 10.1248 16 12.334 16Z" stroke="#303030" stroke-width="2" stroke-linecap="round" stroke-linejoin="round"/>
<path d="M3.33398 16V8C3.33398 5.23858 5.57256 3 8.33398 3H16.334C19.0954 3 21.334 5.23858 21.334 8V16C21.334 18.7614 19.0954 21 16.334 21H8.33398C5.57256 21 3.33398 18.7614 3.33398 16Z" stroke="#303030" stroke-width="2"/>
<path d="M17.834 6.51111L17.844 6.5" stroke="#303030" stroke-width="2" stroke-linecap="round" stroke-linejoin="round"/>
</svg>
