<svg width="24" height="24" viewBox="0 0 24 24" fill="none" xmlns="http://www.w3.org/2000/svg">
<path d="M12 1.71094C6.23662 1.71094 1.56445 6.38306 1.56445 12.1465C1.56445 17.9099 6.23662 22.582 12 22.582C17.7634 22.582 22.4355 17.9099 22.4355 12.1465C22.4355 6.38306 17.7634 1.71094 12 1.71094ZM18.1485 13.4727C18.1745 13.6269 18.1891 13.7834 18.1891 13.9421C18.1891 16.2368 15.4075 18.1038 11.9882 18.1038C8.56882 18.1038 5.78729 16.2368 5.78729 13.9421C5.78729 13.7786 5.80296 13.6176 5.83043 13.4589C5.37844 13.1672 5.0993 12.6673 5.0993 12.1251C5.0993 11.2485 5.81252 10.5353 6.68907 10.5353C7.0746 10.5353 7.43845 10.673 7.7272 10.9228C8.78303 10.2514 10.1903 9.82989 11.7414 9.78858L12.8572 5.97785L15.6585 6.49829L15.6593 6.49867C15.8227 6.20771 16.1251 6.00282 16.4823 5.98466C17.0355 5.95638 17.5085 6.38348 17.5367 6.93673C17.565 7.48994 17.1379 7.96297 16.5846 7.99116C16.0314 8.01935 15.5584 7.59226 15.5301 7.03905C15.5292 7.02004 15.5329 7.00197 15.533 6.98309L13.2083 6.55112L12.2616 9.78951C13.8089 9.83519 15.2117 10.2591 16.263 10.9318C16.5533 10.6764 16.921 10.5354 17.311 10.5354C18.1876 10.5354 18.9007 11.2486 18.9007 12.1251C18.9007 12.6758 18.613 13.1832 18.1485 13.4727Z" fill="#303030"/>
<path d="M13.9318 15.5012C13.9257 15.507 13.3317 16.0922 11.9768 16.0922C10.6451 16.0922 10.1135 15.527 10.0991 15.5114C10.0091 15.4082 9.85281 15.3967 9.7485 15.4856C9.64368 15.5751 9.63145 15.7331 9.72119 15.8378C9.74744 15.8685 10.3844 16.5916 11.9768 16.5916C13.561 16.5916 14.262 15.8784 14.2912 15.8479C14.3859 15.7488 14.3822 15.5928 14.2842 15.4971C14.1856 15.4011 14.0277 15.4035 13.9318 15.5012Z" fill="#303030"/>
<path d="M14.097 14.1842C14.6365 14.1842 15.0739 13.7469 15.0739 13.2073C15.0739 12.6678 14.6365 12.2305 14.097 12.2305C13.5575 12.2305 13.1201 12.6678 13.1201 13.2073C13.1201 13.7469 13.5575 14.1842 14.097 14.1842Z" fill="#303030"/>
<path d="M10.0179 14.1842C10.5574 14.1842 10.9948 13.7469 10.9948 13.2073C10.9948 12.6678 10.5574 12.2305 10.0179 12.2305C9.47838 12.2305 9.04102 12.6678 9.04102 13.2073C9.04102 13.7469 9.47838 14.1842 10.0179 14.1842Z" fill="#303030"/>
</svg>
