<svg width="25" height="24" viewBox="0 0 25 24" fill="none" xmlns="http://www.w3.org/2000/svg">
<path fill-rule="evenodd" clip-rule="evenodd" d="M5.71183 4L18.1562 20H19.6226L7.17811 4H5.71183ZM3.63101 4.5823C2.8136 3.53134 3.56253 2 4.89397 2H7.37374C7.86745 2 8.33356 2.22793 8.63671 2.6177C8.63672 2.61771 8.63672 2.61772 8.63673 2.61773L21.7033 19.4177C22.5209 20.4688 21.7718 22 20.4404 22H17.9607C17.4669 22 17.0009 21.7721 16.6978 21.3826L16.6976 21.3823L3.63101 4.5823C3.63101 4.5823 3.63101 4.5823 3.63101 4.5823Z" fill="#303030"/>
<path fill-rule="evenodd" clip-rule="evenodd" d="M21.3314 2.2526C21.7442 2.61952 21.7813 3.25159 21.4144 3.66437L5.41441 21.6644C5.04749 22.0772 4.41542 22.1143 4.00264 21.7474C3.58986 21.3805 3.55268 20.7484 3.91959 20.3356L19.9196 2.33565C20.2865 1.92286 20.9186 1.88568 21.3314 2.2526Z" fill="#303030"/>
</svg>
